<svg width="355" height="54" viewBox="0 0 355 54" fill="none" xmlns="http://www.w3.org/2000/svg">
<path d="M8.4 1C4.31309 1 1 4.31309 1 8.4V45.6C1 49.6869 4.31308 53 8.39999 53H346.6C350.687 53 354 49.6869 354 45.6V8.4C354 4.3131 350.687 1 346.6 1H8.4Z" stroke="#FFCC00" stroke-width="2"/>
<path d="M3 8.4C3 5.41766 5.41766 3 8.4 3H346.6C349.582 3 352 5.41766 352 8.4V45.6C352 48.5823 349.582 51 346.6 51H8.39999C5.41766 51 3 48.5823 3 45.6V8.4Z" fill="#FFEFD4" stroke="#970F2C" stroke-width="2"/>
<mask id="path-3-outside-1_312_1462" maskUnits="userSpaceOnUse" x="55" y="17" width="244" height="21" fill="black">
<rect fill="white" x="55" y="17" width="244" height="21"/>
<path d="M58.5065 21.04V34.33C58.5065 34.71 58.5665 34.96 58.6865 35.08C58.8065 35.2 59.0565 35.26 59.4365 35.26H60.3065V37.03H58.8065C58.0065 37.03 57.4065 36.84 57.0065 36.46C56.6265 36.06 56.4365 35.46 56.4365 34.66V20.71C56.4365 19.91 56.6265 19.32 57.0065 18.94C57.4065 18.54 58.0065 18.34 58.8065 18.34H60.5165V20.11H59.4365C59.0565 20.11 58.8065 20.17 58.6865 20.29C58.5665 20.39 58.5065 20.64 58.5065 21.04ZM62.0165 23.86V21.04C62.0165 20.64 61.9565 20.39 61.8365 20.29C61.7365 20.17 61.4865 20.11 61.0865 20.11H60.0665V18.34H61.7165C62.5165 18.34 63.1065 18.54 63.4865 18.94C63.8865 19.32 64.0865 19.91 64.0865 20.71V23.86H62.0165ZM62.0165 34.33V31.51H64.0865V34.66C64.0865 35.46 63.8865 36.06 63.4865 36.46C63.1065 36.84 62.5165 37.03 61.7165 37.03H60.0665V35.26H61.0865C61.4865 35.26 61.7365 35.2 61.8365 35.08C61.9565 34.96 62.0165 34.71 62.0165 34.33ZM66.9283 18.34H68.9683V37H66.9283V18.34ZM68.1583 37V35.23H73.2583V37H68.1583ZM75.3729 18.34H77.4129V37H75.3729V18.34ZM82.9401 21.04V34.33C82.9401 34.71 83.0001 34.96 83.1201 35.08C83.2401 35.2 83.4901 35.26 83.8701 35.26H84.7401V37.03H83.2401C82.4401 37.03 81.8401 36.84 81.4401 36.46C81.0601 36.06 80.8701 35.46 80.8701 34.66V20.71C80.8701 19.91 81.0601 19.32 81.4401 18.94C81.8401 18.54 82.4401 18.34 83.2401 18.34H84.9501V20.11H83.8701C83.4901 20.11 83.2401 20.17 83.1201 20.29C83.0001 20.39 82.9401 20.64 82.9401 21.04ZM86.4501 23.86V21.04C86.4501 20.64 86.3901 20.39 86.2701 20.29C86.1701 20.17 85.9201 20.11 85.5201 20.11H84.5001V18.34H86.1501C86.9501 18.34 87.5401 18.54 87.9201 18.94C88.3201 19.32 88.5201 19.91 88.5201 20.71V23.86H86.4501ZM86.4501 34.33V31.51H88.5201V34.66C88.5201 35.46 88.3201 36.06 87.9201 36.46C87.5401 36.84 86.9501 37.03 86.1501 37.03H84.5001V35.26H85.5201C85.9201 35.26 86.1701 35.2 86.2701 35.08C86.3901 34.96 86.4501 34.71 86.4501 34.33ZM93.6119 27.76H95.7419L99.7019 37H97.4819L93.6119 27.76ZM95.7419 27.76H93.6119L97.5419 18.34H99.7619L95.7419 27.76ZM91.3619 18.34H93.4019V37H91.3619V18.34ZM112.59 26.8V28.57H106.92V26.8H112.59ZM105.6 18.34H107.67V37H105.6V18.34ZM111.69 18.34H113.76V37H111.69V18.34ZM117.055 18.34H119.125V37H117.055V18.34ZM123.145 26.41V28.18H118.375V26.41H123.145ZM124.045 18.34V20.11H118.375V18.34H124.045ZM124.255 35.23V37H118.375V35.23H124.255ZM132.278 26.5V21.04C132.278 20.64 132.218 20.39 132.098 20.29C131.998 20.17 131.748 20.11 131.348 20.11H126.518V18.34H131.948C132.748 18.34 133.338 18.54 133.718 18.94C134.118 19.32 134.318 19.91 134.318 20.71V26.83C134.318 27.63 134.118 28.23 133.718 28.63C133.338 29.01 132.748 29.2 131.948 29.2H127.748V27.43H131.348C131.748 27.43 131.998 27.37 132.098 27.25C132.218 27.13 132.278 26.88 132.278 26.5ZM126.518 18.34H128.558V37H126.518V18.34ZM130.058 28.42H132.188L135.278 37H133.058L130.058 28.42ZM137.446 18.34H139.516V37H137.446V18.34ZM143.536 26.41V28.18H138.766V26.41H143.536ZM144.436 18.34V20.11H138.766V18.34H144.436ZM144.646 35.23V37H138.766V35.23H144.646ZM152.305 18.34H154.345V37H152.305V18.34ZM157.345 18.34V20.11H149.305V18.34H157.345ZM164.765 32.77V21.04C164.765 20.64 164.705 20.39 164.585 20.29C164.485 20.17 164.235 20.11 163.835 20.11H162.815V18.34H164.435C165.235 18.34 165.825 18.54 166.205 18.94C166.605 19.32 166.805 19.91 166.805 20.71V32.77H164.765ZM164.765 34.3V31.27H166.805V34.63C166.805 35.43 166.605 36.03 166.205 36.43C165.825 36.81 165.235 37 164.435 37H162.605V35.23H163.835C164.235 35.23 164.485 35.17 164.585 35.05C164.705 34.93 164.765 34.68 164.765 34.3ZM161.045 21.04V32.8H159.005V20.71C159.005 19.91 159.195 19.32 159.575 18.94C159.975 18.54 160.575 18.34 161.375 18.34H162.995V20.11H161.975C161.595 20.11 161.345 20.17 161.225 20.29C161.105 20.39 161.045 20.64 161.045 21.04ZM161.045 31.03V34.3C161.045 34.68 161.105 34.93 161.225 35.05C161.345 35.17 161.595 35.23 161.975 35.23H162.905V37H161.375C160.575 37 159.975 36.81 159.575 36.43C159.195 36.03 159.005 35.43 159.005 34.63V31.03H161.045ZM179.562 18.34H181.632L178.632 37H175.362L172.362 18.34H174.432L176.982 35.56L179.562 18.34ZM183.742 18.34H185.782V37H183.742V18.34ZM189.389 18.34H191.459V37H189.389V18.34ZM195.479 26.41V28.18H190.709V26.41H195.479ZM196.379 18.34V20.11H190.709V18.34H196.379ZM196.589 35.23V37H190.709V35.23H196.589ZM211.302 18.34H213.372L210.642 37H207.522L205.422 22.21L203.352 37H200.232L197.502 18.34H199.572L201.822 35.56L204.192 18.34H206.652L209.022 35.56L211.302 18.34ZM224.823 32.77V21.04C224.823 20.64 224.763 20.39 224.643 20.29C224.543 20.17 224.293 20.11 223.893 20.11H222.873V18.34H224.493C225.293 18.34 225.883 18.54 226.263 18.94C226.663 19.32 226.863 19.91 226.863 20.71V32.77H224.823ZM224.823 34.3V31.27H226.863V34.63C226.863 35.43 226.663 36.03 226.263 36.43C225.883 36.81 225.293 37 224.493 37H222.663V35.23H223.893C224.293 35.23 224.543 35.17 224.643 35.05C224.763 34.93 224.823 34.68 224.823 34.3ZM221.103 21.04V32.8H219.063V20.71C219.063 19.91 219.253 19.32 219.633 18.94C220.033 18.54 220.633 18.34 221.433 18.34H223.053V20.11H222.033C221.653 20.11 221.403 20.17 221.283 20.29C221.163 20.39 221.103 20.64 221.103 21.04ZM221.103 31.03V34.3C221.103 34.68 221.163 34.93 221.283 35.05C221.403 35.17 221.653 35.23 222.033 35.23H222.963V37H221.433C220.633 37 220.033 36.81 219.633 36.43C219.253 36.03 219.063 35.43 219.063 34.63V31.03H221.103ZM235.694 34.3V18.34H237.734V34.63C237.734 35.43 237.534 36.03 237.134 36.43C236.754 36.81 236.164 37 235.364 37H233.534V35.23H234.764C235.164 35.23 235.414 35.17 235.514 35.05C235.634 34.93 235.694 34.68 235.694 34.3ZM231.974 18.34V34.3C231.974 34.68 232.034 34.93 232.154 35.05C232.274 35.17 232.524 35.23 232.904 35.23H233.834V37H232.304C231.504 37 230.904 36.81 230.504 36.43C230.124 36.03 229.934 35.43 229.934 34.63V18.34H231.974ZM246.712 26.5V21.04C246.712 20.64 246.652 20.39 246.532 20.29C246.432 20.17 246.182 20.11 245.782 20.11H240.952V18.34H246.382C247.182 18.34 247.772 18.54 248.152 18.94C248.552 19.32 248.752 19.91 248.752 20.71V26.83C248.752 27.63 248.552 28.23 248.152 28.63C247.772 29.01 247.182 29.2 246.382 29.2H242.182V27.43H245.782C246.182 27.43 246.432 27.37 246.532 27.25C246.652 27.13 246.712 26.88 246.712 26.5ZM240.952 18.34H242.992V37H240.952V18.34ZM244.492 28.42H246.622L249.712 37H247.492L244.492 28.42ZM262.346 32.95H260.156L257.546 22.87V37H255.776V18.34H258.026L261.236 30.34L264.476 18.34H266.726V37H264.956V22.87L262.346 32.95ZM270.014 18.34H272.084V37H270.014V18.34ZM276.104 26.41V28.18H271.334V26.41H276.104ZM277.004 18.34V20.11H271.334V18.34H277.004ZM277.214 35.23V37H271.334V35.23H277.214ZM285.597 18.34H287.487V37H285.237L281.367 22.54V37H279.477V18.34H281.877L285.597 32.29V18.34ZM296.456 34.3V18.34H298.496V34.63C298.496 35.43 298.296 36.03 297.896 36.43C297.516 36.81 296.926 37 296.126 37H294.296V35.23H295.526C295.926 35.23 296.176 35.17 296.276 35.05C296.396 34.93 296.456 34.68 296.456 34.3ZM292.736 18.34V34.3C292.736 34.68 292.796 34.93 292.916 35.05C293.036 35.17 293.286 35.23 293.666 35.23H294.596V37H293.066C292.266 37 291.666 36.81 291.266 36.43C290.886 36.03 290.696 35.43 290.696 34.63V18.34H292.736Z"/>
</mask>
<path d="M58.5065 21.04V34.33C58.5065 34.71 58.5665 34.96 58.6865 35.08C58.8065 35.2 59.0565 35.26 59.4365 35.26H60.3065V37.03H58.8065C58.0065 37.03 57.4065 36.84 57.0065 36.46C56.6265 36.06 56.4365 35.46 56.4365 34.66V20.71C56.4365 19.91 56.6265 19.32 57.0065 18.94C57.4065 18.54 58.0065 18.34 58.8065 18.34H60.5165V20.11H59.4365C59.0565 20.11 58.8065 20.17 58.6865 20.29C58.5665 20.39 58.5065 20.64 58.5065 21.04ZM62.0165 23.86V21.04C62.0165 20.64 61.9565 20.39 61.8365 20.29C61.7365 20.17 61.4865 20.11 61.0865 20.11H60.0665V18.34H61.7165C62.5165 18.34 63.1065 18.54 63.4865 18.94C63.8865 19.32 64.0865 19.91 64.0865 20.71V23.86H62.0165ZM62.0165 34.33V31.51H64.0865V34.66C64.0865 35.46 63.8865 36.06 63.4865 36.46C63.1065 36.84 62.5165 37.03 61.7165 37.03H60.0665V35.26H61.0865C61.4865 35.26 61.7365 35.2 61.8365 35.08C61.9565 34.96 62.0165 34.71 62.0165 34.33ZM66.9283 18.34H68.9683V37H66.9283V18.34ZM68.1583 37V35.23H73.2583V37H68.1583ZM75.3729 18.34H77.4129V37H75.3729V18.34ZM82.9401 21.04V34.33C82.9401 34.71 83.0001 34.96 83.1201 35.08C83.2401 35.2 83.4901 35.26 83.8701 35.26H84.7401V37.03H83.2401C82.4401 37.03 81.8401 36.84 81.4401 36.46C81.0601 36.06 80.8701 35.46 80.8701 34.66V20.71C80.8701 19.91 81.0601 19.32 81.4401 18.94C81.8401 18.54 82.4401 18.34 83.2401 18.34H84.9501V20.11H83.8701C83.4901 20.11 83.2401 20.17 83.1201 20.29C83.0001 20.39 82.9401 20.64 82.9401 21.04ZM86.4501 23.86V21.04C86.4501 20.64 86.3901 20.39 86.2701 20.29C86.1701 20.17 85.9201 20.11 85.5201 20.11H84.5001V18.34H86.1501C86.9501 18.34 87.5401 18.54 87.9201 18.94C88.3201 19.32 88.5201 19.91 88.5201 20.71V23.86H86.4501ZM86.4501 34.33V31.51H88.5201V34.66C88.5201 35.46 88.3201 36.06 87.9201 36.46C87.5401 36.84 86.9501 37.03 86.1501 37.03H84.5001V35.26H85.5201C85.9201 35.26 86.1701 35.2 86.2701 35.08C86.3901 34.96 86.4501 34.71 86.4501 34.33ZM93.6119 27.76H95.7419L99.7019 37H97.4819L93.6119 27.76ZM95.7419 27.76H93.6119L97.5419 18.34H99.7619L95.7419 27.76ZM91.3619 18.34H93.4019V37H91.3619V18.34ZM112.59 26.8V28.57H106.92V26.8H112.59ZM105.6 18.34H107.67V37H105.6V18.34ZM111.69 18.34H113.76V37H111.69V18.34ZM117.055 18.34H119.125V37H117.055V18.34ZM123.145 26.41V28.18H118.375V26.41H123.145ZM124.045 18.34V20.11H118.375V18.34H124.045ZM124.255 35.23V37H118.375V35.23H124.255ZM132.278 26.5V21.04C132.278 20.64 132.218 20.39 132.098 20.29C131.998 20.17 131.748 20.11 131.348 20.11H126.518V18.34H131.948C132.748 18.34 133.338 18.54 133.718 18.94C134.118 19.32 134.318 19.91 134.318 20.71V26.83C134.318 27.63 134.118 28.23 133.718 28.63C133.338 29.01 132.748 29.2 131.948 29.2H127.748V27.43H131.348C131.748 27.43 131.998 27.37 132.098 27.25C132.218 27.13 132.278 26.88 132.278 26.5ZM126.518 18.34H128.558V37H126.518V18.34ZM130.058 28.42H132.188L135.278 37H133.058L130.058 28.42ZM137.446 18.34H139.516V37H137.446V18.34ZM143.536 26.41V28.18H138.766V26.41H143.536ZM144.436 18.34V20.11H138.766V18.34H144.436ZM144.646 35.23V37H138.766V35.23H144.646ZM152.305 18.34H154.345V37H152.305V18.34ZM157.345 18.34V20.11H149.305V18.34H157.345ZM164.765 32.77V21.04C164.765 20.64 164.705 20.39 164.585 20.29C164.485 20.17 164.235 20.11 163.835 20.11H162.815V18.34H164.435C165.235 18.34 165.825 18.54 166.205 18.94C166.605 19.32 166.805 19.91 166.805 20.71V32.77H164.765ZM164.765 34.3V31.27H166.805V34.63C166.805 35.43 166.605 36.03 166.205 36.43C165.825 36.81 165.235 37 164.435 37H162.605V35.23H163.835C164.235 35.23 164.485 35.17 164.585 35.05C164.705 34.93 164.765 34.68 164.765 34.3ZM161.045 21.04V32.8H159.005V20.71C159.005 19.91 159.195 19.32 159.575 18.94C159.975 18.54 160.575 18.34 161.375 18.34H162.995V20.11H161.975C161.595 20.11 161.345 20.17 161.225 20.29C161.105 20.39 161.045 20.64 161.045 21.04ZM161.045 31.03V34.3C161.045 34.68 161.105 34.93 161.225 35.05C161.345 35.17 161.595 35.23 161.975 35.23H162.905V37H161.375C160.575 37 159.975 36.81 159.575 36.43C159.195 36.03 159.005 35.43 159.005 34.63V31.03H161.045ZM179.562 18.34H181.632L178.632 37H175.362L172.362 18.34H174.432L176.982 35.56L179.562 18.34ZM183.742 18.34H185.782V37H183.742V18.34ZM189.389 18.34H191.459V37H189.389V18.34ZM195.479 26.41V28.18H190.709V26.41H195.479ZM196.379 18.34V20.11H190.709V18.34H196.379ZM196.589 35.23V37H190.709V35.23H196.589ZM211.302 18.34H213.372L210.642 37H207.522L205.422 22.21L203.352 37H200.232L197.502 18.34H199.572L201.822 35.56L204.192 18.34H206.652L209.022 35.56L211.302 18.34ZM224.823 32.77V21.04C224.823 20.64 224.763 20.39 224.643 20.29C224.543 20.17 224.293 20.11 223.893 20.11H222.873V18.34H224.493C225.293 18.34 225.883 18.54 226.263 18.94C226.663 19.32 226.863 19.91 226.863 20.71V32.77H224.823ZM224.823 34.3V31.27H226.863V34.63C226.863 35.43 226.663 36.03 226.263 36.43C225.883 36.81 225.293 37 224.493 37H222.663V35.23H223.893C224.293 35.23 224.543 35.17 224.643 35.05C224.763 34.93 224.823 34.68 224.823 34.3ZM221.103 21.04V32.8H219.063V20.71C219.063 19.91 219.253 19.32 219.633 18.94C220.033 18.54 220.633 18.34 221.433 18.34H223.053V20.11H222.033C221.653 20.11 221.403 20.17 221.283 20.29C221.163 20.39 221.103 20.64 221.103 21.04ZM221.103 31.03V34.3C221.103 34.68 221.163 34.93 221.283 35.05C221.403 35.17 221.653 35.23 222.033 35.23H222.963V37H221.433C220.633 37 220.033 36.81 219.633 36.43C219.253 36.03 219.063 35.43 219.063 34.63V31.03H221.103ZM235.694 34.3V18.34H237.734V34.63C237.734 35.43 237.534 36.03 237.134 36.43C236.754 36.81 236.164 37 235.364 37H233.534V35.23H234.764C235.164 35.23 235.414 35.17 235.514 35.05C235.634 34.93 235.694 34.68 235.694 34.3ZM231.974 18.34V34.3C231.974 34.68 232.034 34.93 232.154 35.05C232.274 35.17 232.524 35.23 232.904 35.23H233.834V37H232.304C231.504 37 230.904 36.81 230.504 36.43C230.124 36.03 229.934 35.43 229.934 34.63V18.34H231.974ZM246.712 26.5V21.04C246.712 20.64 246.652 20.39 246.532 20.29C246.432 20.17 246.182 20.11 245.782 20.11H240.952V18.34H246.382C247.182 18.34 247.772 18.54 248.152 18.94C248.552 19.32 248.752 19.91 248.752 20.71V26.83C248.752 27.63 248.552 28.23 248.152 28.63C247.772 29.01 247.182 29.2 246.382 29.2H242.182V27.43H245.782C246.182 27.43 246.432 27.37 246.532 27.25C246.652 27.13 246.712 26.88 246.712 26.5ZM240.952 18.34H242.992V37H240.952V18.34ZM244.492 28.42H246.622L249.712 37H247.492L244.492 28.42ZM262.346 32.95H260.156L257.546 22.87V37H255.776V18.34H258.026L261.236 30.34L264.476 18.34H266.726V37H264.956V22.87L262.346 32.95ZM270.014 18.34H272.084V37H270.014V18.34ZM276.104 26.41V28.18H271.334V26.41H276.104ZM277.004 18.34V20.11H271.334V18.34H277.004ZM277.214 35.23V37H271.334V35.23H277.214ZM285.597 18.34H287.487V37H285.237L281.367 22.54V37H279.477V18.34H281.877L285.597 32.29V18.34ZM296.456 34.3V18.34H298.496V34.63C298.496 35.43 298.296 36.03 297.896 36.43C297.516 36.81 296.926 37 296.126 37H294.296V35.23H295.526C295.926 35.23 296.176 35.17 296.276 35.05C296.396 34.93 296.456 34.68 296.456 34.3ZM292.736 18.34V34.3C292.736 34.68 292.796 34.93 292.916 35.05C293.036 35.17 293.286 35.23 293.666 35.23H294.596V37H293.066C292.266 37 291.666 36.81 291.266 36.43C290.886 36.03 290.696 35.43 290.696 34.63V18.34H292.736Z" fill="black"/>
<path d="M58.6865 35.08L58.333 35.4336L58.6865 35.08ZM60.3065 35.26H60.8065V34.76H60.3065V35.26ZM60.3065 37.03V37.53H60.8065V37.03H60.3065ZM57.0065 36.46L56.644 36.8044L56.6529 36.8137L56.6621 36.8225L57.0065 36.46ZM57.0065 18.94L56.653 18.5864L56.653 18.5864L57.0065 18.94ZM60.5165 18.34H61.0165V17.84H60.5165V18.34ZM60.5165 20.11V20.61H61.0165V20.11H60.5165ZM58.6865 20.29L59.0066 20.6741L59.024 20.6596L59.0401 20.6436L58.6865 20.29ZM62.0165 23.86H61.5165V24.36H62.0165V23.86ZM61.8365 20.29L61.4524 20.6101L61.4815 20.645L61.5164 20.6741L61.8365 20.29ZM60.0665 20.11H59.5665V20.61H60.0665V20.11ZM60.0665 18.34V17.84H59.5665V18.34H60.0665ZM63.4865 18.94L63.124 19.2844L63.1329 19.2937L63.1421 19.3025L63.4865 18.94ZM64.0865 23.86V24.36H64.5865V23.86H64.0865ZM62.0165 31.51V31.01H61.5165V31.51H62.0165ZM64.0865 31.51H64.5865V31.01H64.0865V31.51ZM63.4865 36.46L63.8401 36.8136V36.8136L63.4865 36.46ZM60.0665 37.03H59.5665V37.53H60.0665V37.03ZM60.0665 35.26V34.76H59.5665V35.26H60.0665ZM61.8365 35.08L61.483 34.7264L61.4669 34.7425L61.4524 34.7599L61.8365 35.08ZM58.0065 21.04V34.33H59.0065V21.04H58.0065ZM58.0065 34.33C58.0065 34.5425 58.0229 34.7425 58.0653 34.9192C58.1066 35.0911 58.1824 35.283 58.333 35.4336L59.0401 34.7264C59.0706 34.757 59.0565 34.7639 59.0377 34.6858C59.0201 34.6125 59.0065 34.4975 59.0065 34.33H58.0065ZM58.333 35.4336C58.4835 35.5841 58.6755 35.6599 58.8473 35.7012C59.024 35.7436 59.224 35.76 59.4365 35.76V34.76C59.269 34.76 59.154 34.7464 59.0807 34.7288C59.0026 34.7101 59.0095 34.6959 59.0401 34.7264L58.333 35.4336ZM59.4365 35.76H60.3065V34.76H59.4365V35.76ZM59.8065 35.26V37.03H60.8065V35.26H59.8065ZM60.3065 36.53H58.8065V37.53H60.3065V36.53ZM58.8065 36.53C58.0774 36.53 57.6234 36.3564 57.3509 36.0975L56.6621 36.8225C57.1896 37.3236 57.9357 37.53 58.8065 37.53V36.53ZM57.369 36.1156C57.1101 35.8431 56.9365 35.3891 56.9365 34.66H55.9365C55.9365 35.5309 56.1429 36.2769 56.644 36.8044L57.369 36.1156ZM56.9365 34.66V20.71H55.9365V34.66H56.9365ZM56.9365 20.71C56.9365 19.9784 57.1112 19.5425 57.3601 19.2936L56.653 18.5864C56.1419 19.0975 55.9365 19.8416 55.9365 20.71H56.9365ZM57.3601 19.2936C57.6332 19.0204 58.0836 18.84 58.8065 18.84V17.84C57.9295 17.84 57.1798 18.0596 56.653 18.5864L57.3601 19.2936ZM58.8065 18.84H60.5165V17.84H58.8065V18.84ZM60.0165 18.34V20.11H61.0165V18.34H60.0165ZM60.5165 19.61H59.4365V20.61H60.5165V19.61ZM59.4365 19.61C59.224 19.61 59.024 19.6264 58.8473 19.6688C58.6755 19.7101 58.4835 19.7859 58.333 19.9364L59.0401 20.6436C59.0095 20.6741 59.0026 20.6599 59.0807 20.6412C59.154 20.6236 59.269 20.61 59.4365 20.61V19.61ZM58.3664 19.9059C58.1855 20.0567 58.1056 20.2679 58.0653 20.4358C58.0226 20.614 58.0065 20.8198 58.0065 21.04H59.0065C59.0065 20.8602 59.0205 20.741 59.0377 20.6692C59.0574 20.587 59.0676 20.6233 59.0066 20.6741L58.3664 19.9059ZM62.5165 23.86V21.04H61.5165V23.86H62.5165ZM62.5165 21.04C62.5165 20.8198 62.5005 20.614 62.4577 20.4358C62.4174 20.2679 62.3376 20.0567 62.1566 19.9059L61.5164 20.6741C61.4555 20.6233 61.4656 20.5871 61.4853 20.6692C61.5026 20.741 61.5165 20.8602 61.5165 21.04H62.5165ZM62.2206 19.9699C62.0698 19.7889 61.8586 19.7091 61.6907 19.6688C61.5125 19.626 61.3067 19.61 61.0865 19.61V20.61C61.2664 20.61 61.3855 20.624 61.4573 20.6412C61.5395 20.6609 61.5032 20.671 61.4524 20.6101L62.2206 19.9699ZM61.0865 19.61H60.0665V20.61H61.0865V19.61ZM60.5665 20.11V18.34H59.5665V20.11H60.5665ZM60.0665 18.84H61.7165V17.84H60.0665V18.84ZM61.7165 18.84C62.4417 18.84 62.8741 19.0213 63.124 19.2844L63.849 18.5956C63.3389 18.0587 62.5913 17.84 61.7165 17.84V18.84ZM63.1421 19.3025C63.4052 19.5524 63.5865 19.9848 63.5865 20.71H64.5865C64.5865 19.8352 64.3678 19.0876 63.8309 18.5775L63.1421 19.3025ZM63.5865 20.71V23.86H64.5865V20.71H63.5865ZM64.0865 23.36H62.0165V24.36H64.0865V23.36ZM62.5165 34.33V31.51H61.5165V34.33H62.5165ZM62.0165 32.01H64.0865V31.01H62.0165V32.01ZM63.5865 31.51V34.66H64.5865V31.51H63.5865ZM63.5865 34.66C63.5865 35.3829 63.4061 35.8333 63.133 36.1064L63.8401 36.8136C64.3669 36.2867 64.5865 35.5371 64.5865 34.66H63.5865ZM63.133 36.1064C62.884 36.3554 62.4481 36.53 61.7165 36.53V37.53C62.5849 37.53 63.329 37.3246 63.8401 36.8136L63.133 36.1064ZM61.7165 36.53H60.0665V37.53H61.7165V36.53ZM60.5665 37.03V35.26H59.5665V37.03H60.5665ZM60.0665 35.76H61.0865V34.76H60.0665V35.76ZM61.0865 35.76C61.3067 35.76 61.5125 35.744 61.6907 35.7012C61.8586 35.6609 62.0698 35.581 62.2206 35.4001L61.4524 34.7599C61.5032 34.699 61.5395 34.7091 61.4573 34.7288C61.3855 34.746 61.2664 34.76 61.0865 34.76V35.76ZM62.1901 35.4336C62.3406 35.283 62.4165 35.0911 62.4577 34.9192C62.5001 34.7425 62.5165 34.5425 62.5165 34.33H61.5165C61.5165 34.4975 61.5029 34.6125 61.4853 34.6858C61.4666 34.7639 61.4524 34.757 61.483 34.7264L62.1901 35.4336ZM66.9283 18.34V17.84H66.4283V18.34H66.9283ZM68.9683 18.34H69.4683V17.84H68.9683V18.34ZM68.9683 37V37.5H69.4683V37H68.9683ZM66.9283 37H66.4283V37.5H66.9283V37ZM68.1583 37H67.6583V37.5H68.1583V37ZM68.1583 35.23V34.73H67.6583V35.23H68.1583ZM73.2583 35.23H73.7583V34.73H73.2583V35.23ZM73.2583 37V37.5H73.7583V37H73.2583ZM66.9283 18.84H68.9683V17.84H66.9283V18.84ZM68.4683 18.34V37H69.4683V18.34H68.4683ZM68.9683 36.5H66.9283V37.5H68.9683V36.5ZM67.4283 37V18.34H66.4283V37H67.4283ZM68.6583 37V35.23H67.6583V37H68.6583ZM68.1583 35.73H73.2583V34.73H68.1583V35.73ZM72.7583 35.23V37H73.7583V35.23H72.7583ZM73.2583 36.5H68.1583V37.5H73.2583V36.5ZM75.3729 18.34V17.84H74.8729V18.34H75.3729ZM77.4129 18.34H77.9129V17.84H77.4129V18.34ZM77.4129 37V37.5H77.9129V37H77.4129ZM75.3729 37H74.8729V37.5H75.3729V37ZM75.3729 18.84H77.4129V17.84H75.3729V18.84ZM76.9129 18.34V37H77.9129V18.34H76.9129ZM77.4129 36.5H75.3729V37.5H77.4129V36.5ZM75.8729 37V18.34H74.8729V37H75.8729ZM83.1201 35.08L82.7666 35.4336L83.1201 35.08ZM84.7401 35.26H85.2401V34.76H84.7401V35.26ZM84.7401 37.03V37.53H85.2401V37.03H84.7401ZM81.4401 36.46L81.0776 36.8044L81.0864 36.8137L81.0957 36.8225L81.4401 36.46ZM81.4401 18.94L81.0866 18.5864L81.0866 18.5864L81.4401 18.94ZM84.9501 18.34H85.4501V17.84H84.9501V18.34ZM84.9501 20.11V20.61H85.4501V20.11H84.9501ZM83.1201 20.29L83.4402 20.6741L83.4576 20.6596L83.4737 20.6436L83.1201 20.29ZM86.4501 23.86H85.9501V24.36H86.4501V23.86ZM86.2701 20.29L85.886 20.6101L85.9151 20.645L85.95 20.6741L86.2701 20.29ZM84.5001 20.11H84.0001V20.61H84.5001V20.11ZM84.5001 18.34V17.84H84.0001V18.34H84.5001ZM87.9201 18.94L87.5576 19.2844L87.5664 19.2937L87.5757 19.3025L87.9201 18.94ZM88.5201 23.86V24.36H89.0201V23.86H88.5201ZM86.4501 31.51V31.01H85.9501V31.51H86.4501ZM88.5201 31.51H89.0201V31.01H88.5201V31.51ZM87.9201 36.46L88.2737 36.8136V36.8136L87.9201 36.46ZM84.5001 37.03H84.0001V37.53H84.5001V37.03ZM84.5001 35.26V34.76H84.0001V35.26H84.5001ZM86.2701 35.08L85.9166 34.7264L85.9005 34.7425L85.886 34.7599L86.2701 35.08ZM82.4401 21.04V34.33H83.4401V21.04H82.4401ZM82.4401 34.33C82.4401 34.5425 82.4565 34.7425 82.4989 34.9192C82.5402 35.0911 82.616 35.283 82.7666 35.4336L83.4737 34.7264C83.5042 34.757 83.4901 34.7639 83.4713 34.6858C83.4537 34.6125 83.4401 34.4975 83.4401 34.33H82.4401ZM82.7666 35.4336C82.9171 35.5841 83.1091 35.6599 83.2809 35.7012C83.4576 35.7436 83.6576 35.76 83.8701 35.76V34.76C83.7026 34.76 83.5876 34.7464 83.5143 34.7288C83.4362 34.7101 83.4431 34.6959 83.4737 34.7264L82.7666 35.4336ZM83.8701 35.76H84.7401V34.76H83.8701V35.76ZM84.2401 35.26V37.03H85.2401V35.26H84.2401ZM84.7401 36.53H83.2401V37.53H84.7401V36.53ZM83.2401 36.53C82.511 36.53 82.057 36.3564 81.7845 36.0975L81.0957 36.8225C81.6232 37.3236 82.3693 37.53 83.2401 37.53V36.53ZM81.8026 36.1156C81.5437 35.8431 81.3701 35.3891 81.3701 34.66H80.3701C80.3701 35.5309 80.5765 36.2769 81.0776 36.8044L81.8026 36.1156ZM81.3701 34.66V20.71H80.3701V34.66H81.3701ZM81.3701 20.71C81.3701 19.9784 81.5447 19.5425 81.7937 19.2936L81.0866 18.5864C80.5755 19.0975 80.3701 19.8416 80.3701 20.71H81.3701ZM81.7937 19.2936C82.0668 19.0204 82.5172 18.84 83.2401 18.84V17.84C82.363 17.84 81.6134 18.0596 81.0866 18.5864L81.7937 19.2936ZM83.2401 18.84H84.9501V17.84H83.2401V18.84ZM84.4501 18.34V20.11H85.4501V18.34H84.4501ZM84.9501 19.61H83.8701V20.61H84.9501V19.61ZM83.8701 19.61C83.6576 19.61 83.4576 19.6264 83.2809 19.6688C83.1091 19.7101 82.9171 19.7859 82.7666 19.9364L83.4737 20.6436C83.4431 20.6741 83.4362 20.6599 83.5143 20.6412C83.5876 20.6236 83.7026 20.61 83.8701 20.61V19.61ZM82.8 19.9059C82.6191 20.0567 82.5392 20.2679 82.4989 20.4358C82.4562 20.614 82.4401 20.8198 82.4401 21.04H83.4401C83.4401 20.8602 83.4541 20.741 83.4713 20.6692C83.491 20.587 83.5012 20.6233 83.4402 20.6741L82.8 19.9059ZM86.9501 23.86V21.04H85.9501V23.86H86.9501ZM86.9501 21.04C86.9501 20.8198 86.9341 20.614 86.8913 20.4358C86.851 20.2679 86.7712 20.0567 86.5902 19.9059L85.95 20.6741C85.8891 20.6233 85.8992 20.5871 85.9189 20.6692C85.9362 20.741 85.9501 20.8602 85.9501 21.04H86.9501ZM86.6542 19.9699C86.5034 19.7889 86.2922 19.7091 86.1243 19.6688C85.9461 19.626 85.7403 19.61 85.5201 19.61V20.61C85.7 20.61 85.8191 20.624 85.8909 20.6412C85.9731 20.6609 85.9368 20.671 85.886 20.6101L86.6542 19.9699ZM85.5201 19.61H84.5001V20.61H85.5201V19.61ZM85.0001 20.11V18.34H84.0001V20.11H85.0001ZM84.5001 18.84H86.1501V17.84H84.5001V18.84ZM86.1501 18.84C86.8753 18.84 87.3077 19.0213 87.5576 19.2844L88.2826 18.5956C87.7725 18.0587 87.0249 17.84 86.1501 17.84V18.84ZM87.5757 19.3025C87.8388 19.5524 88.0201 19.9848 88.0201 20.71H89.0201C89.0201 19.8352 88.8014 19.0876 88.2645 18.5775L87.5757 19.3025ZM88.0201 20.71V23.86H89.0201V20.71H88.0201ZM88.5201 23.36H86.4501V24.36H88.5201V23.36ZM86.9501 34.33V31.51H85.9501V34.33H86.9501ZM86.4501 32.01H88.5201V31.01H86.4501V32.01ZM88.0201 31.51V34.66H89.0201V31.51H88.0201ZM88.0201 34.66C88.0201 35.3829 87.8397 35.8333 87.5666 36.1064L88.2737 36.8136C88.8005 36.2867 89.0201 35.5371 89.0201 34.66H88.0201ZM87.5666 36.1064C87.3176 36.3554 86.8817 36.53 86.1501 36.53V37.53C87.0185 37.53 87.7626 37.3246 88.2737 36.8136L87.5666 36.1064ZM86.1501 36.53H84.5001V37.53H86.1501V36.53ZM85.0001 37.03V35.26H84.0001V37.03H85.0001ZM84.5001 35.76H85.5201V34.76H84.5001V35.76ZM85.5201 35.76C85.7403 35.76 85.9461 35.744 86.1243 35.7012C86.2922 35.6609 86.5034 35.581 86.6542 35.4001L85.886 34.7599C85.9368 34.699 85.9731 34.7091 85.8909 34.7288C85.8191 34.746 85.7 34.76 85.5201 34.76V35.76ZM86.6237 35.4336C86.7742 35.283 86.8501 35.0911 86.8913 34.9192C86.9337 34.7425 86.9501 34.5425 86.9501 34.33H85.9501C85.9501 34.4975 85.9365 34.6125 85.9189 34.6858C85.9002 34.7639 85.886 34.757 85.9166 34.7264L86.6237 35.4336ZM93.6119 27.76V27.26H92.8604L93.1507 27.9532L93.6119 27.76ZM95.7419 27.76L96.2015 27.563L96.0716 27.26H95.7419V27.76ZM99.7019 37V37.5H100.46L100.161 36.803L99.7019 37ZM97.4819 37L97.0207 37.1932L97.1492 37.5H97.4819V37ZM95.7419 27.76V28.26H96.0722L96.2018 27.9563L95.7419 27.76ZM93.6119 27.76L93.1505 27.5675L92.8615 28.26H93.6119V27.76ZM97.5419 18.34V17.84H97.2087L97.0805 18.1475L97.5419 18.34ZM99.7619 18.34L100.222 18.5363L100.519 17.84H99.7619V18.34ZM91.3619 18.34V17.84H90.8619V18.34H91.3619ZM93.4019 18.34H93.9019V17.84H93.4019V18.34ZM93.4019 37V37.5H93.9019V37H93.4019ZM91.3619 37H90.8619V37.5H91.3619V37ZM93.6119 28.26H95.7419V27.26H93.6119V28.26ZM95.2823 27.957L99.2423 37.197L100.161 36.803L96.2015 27.563L95.2823 27.957ZM99.7019 36.5H97.4819V37.5H99.7019V36.5ZM97.9431 36.8068L94.0731 27.5668L93.1507 27.9532L97.0207 37.1932L97.9431 36.8068ZM95.7419 27.26H93.6119V28.26H95.7419V27.26ZM94.0734 27.9525L98.0034 18.5325L97.0805 18.1475L93.1505 27.5675L94.0734 27.9525ZM97.5419 18.84H99.7619V17.84H97.5419V18.84ZM99.302 18.1437L95.282 27.5637L96.2018 27.9563L100.222 18.5363L99.302 18.1437ZM91.3619 18.84H93.4019V17.84H91.3619V18.84ZM92.9019 18.34V37H93.9019V18.34H92.9019ZM93.4019 36.5H91.3619V37.5H93.4019V36.5ZM91.8619 37V18.34H90.8619V37H91.8619ZM112.59 26.8H113.09V26.3H112.59V26.8ZM112.59 28.57V29.07H113.09V28.57H112.59ZM106.92 28.57H106.42V29.07H106.92V28.57ZM106.92 26.8V26.3H106.42V26.8H106.92ZM105.6 18.34V17.84H105.1V18.34H105.6ZM107.67 18.34H108.17V17.84H107.67V18.34ZM107.67 37V37.5H108.17V37H107.67ZM105.6 37H105.1V37.5H105.6V37ZM111.69 18.34V17.84H111.19V18.34H111.69ZM113.76 18.34H114.26V17.84H113.76V18.34ZM113.76 37V37.5H114.26V37H113.76ZM111.69 37H111.19V37.5H111.69V37ZM112.09 26.8V28.57H113.09V26.8H112.09ZM112.59 28.07H106.92V29.07H112.59V28.07ZM107.42 28.57V26.8H106.42V28.57H107.42ZM106.92 27.3H112.59V26.3H106.92V27.3ZM105.6 18.84H107.67V17.84H105.6V18.84ZM107.17 18.34V37H108.17V18.34H107.17ZM107.67 36.5H105.6V37.5H107.67V36.5ZM106.1 37V18.34H105.1V37H106.1ZM111.69 18.84H113.76V17.84H111.69V18.84ZM113.26 18.34V37H114.26V18.34H113.26ZM113.76 36.5H111.69V37.5H113.76V36.5ZM112.19 37V18.34H111.19V37H112.19ZM117.055 18.34V17.84H116.555V18.34H117.055ZM119.125 18.34H119.625V17.84H119.125V18.34ZM119.125 37V37.5H119.625V37H119.125ZM117.055 37H116.555V37.5H117.055V37ZM123.145 26.41H123.645V25.91H123.145V26.41ZM123.145 28.18V28.68H123.645V28.18H123.145ZM118.375 28.18H117.875V28.68H118.375V28.18ZM118.375 26.41V25.91H117.875V26.41H118.375ZM124.045 18.34H124.545V17.84H124.045V18.34ZM124.045 20.11V20.61H124.545V20.11H124.045ZM118.375 20.11H117.875V20.61H118.375V20.11ZM118.375 18.34V17.84H117.875V18.34H118.375ZM124.255 35.23H124.755V34.73H124.255V35.23ZM124.255 37V37.5H124.755V37H124.255ZM118.375 37H117.875V37.5H118.375V37ZM118.375 35.23V34.73H117.875V35.23H118.375ZM117.055 18.84H119.125V17.84H117.055V18.84ZM118.625 18.34V37H119.625V18.34H118.625ZM119.125 36.5H117.055V37.5H119.125V36.5ZM117.555 37V18.34H116.555V37H117.555ZM122.645 26.41V28.18H123.645V26.41H122.645ZM123.145 27.68H118.375V28.68H123.145V27.68ZM118.875 28.18V26.41H117.875V28.18H118.875ZM118.375 26.91H123.145V25.91H118.375V26.91ZM123.545 18.34V20.11H124.545V18.34H123.545ZM124.045 19.61H118.375V20.61H124.045V19.61ZM118.875 20.11V18.34H117.875V20.11H118.875ZM118.375 18.84H124.045V17.84H118.375V18.84ZM123.755 35.23V37H124.755V35.23H123.755ZM124.255 36.5H118.375V37.5H124.255V36.5ZM118.875 37V35.23H117.875V37H118.875ZM118.375 35.73H124.255V34.73H118.375V35.73ZM132.098 20.29L131.714 20.6101L131.743 20.645L131.778 20.6741L132.098 20.29ZM126.518 20.11H126.018V20.61H126.518V20.11ZM126.518 18.34V17.84H126.018V18.34H126.518ZM133.718 18.94L133.356 19.2844L133.364 19.2937L133.374 19.3025L133.718 18.94ZM133.718 28.63L134.072 28.9836L133.718 28.63ZM127.748 29.2H127.248V29.7H127.748V29.2ZM127.748 27.43V26.93H127.248V27.43H127.748ZM132.098 27.25L131.745 26.8964L131.729 26.9125L131.714 26.9299L132.098 27.25ZM126.518 18.34V17.84H126.018V18.34H126.518ZM128.558 18.34H129.058V17.84H128.558V18.34ZM128.558 37V37.5H129.058V37H128.558ZM126.518 37H126.018V37.5H126.518V37ZM130.058 28.42V27.92H129.354L129.586 28.585L130.058 28.42ZM132.188 28.42L132.659 28.2506L132.54 27.92H132.188V28.42ZM135.278 37V37.5H135.99L135.749 36.8306L135.278 37ZM133.058 37L132.586 37.165L132.703 37.5H133.058V37ZM132.778 26.5V21.04H131.778V26.5H132.778ZM132.778 21.04C132.778 20.8198 132.762 20.614 132.719 20.4358C132.679 20.2679 132.599 20.0567 132.418 19.9059L131.778 20.6741C131.717 20.6233 131.727 20.587 131.747 20.6692C131.764 20.741 131.778 20.8602 131.778 21.04H132.778ZM132.482 19.9699C132.331 19.7889 132.12 19.7091 131.952 19.6688C131.774 19.626 131.568 19.61 131.348 19.61V20.61C131.528 20.61 131.647 20.624 131.719 20.6412C131.801 20.6609 131.765 20.671 131.714 20.6101L132.482 19.9699ZM131.348 19.61H126.518V20.61H131.348V19.61ZM127.018 20.11V18.34H126.018V20.11H127.018ZM126.518 18.84H131.948V17.84H126.518V18.84ZM131.948 18.84C132.673 18.84 133.106 19.0213 133.356 19.2844L134.081 18.5956C133.571 18.0587 132.823 17.84 131.948 17.84V18.84ZM133.374 19.3025C133.637 19.5524 133.818 19.9848 133.818 20.71H134.818C134.818 19.8352 134.599 19.0876 134.063 18.5775L133.374 19.3025ZM133.818 20.71V26.83H134.818V20.71H133.818ZM133.818 26.83C133.818 27.5529 133.638 28.0033 133.365 28.2764L134.072 28.9836C134.599 28.4567 134.818 27.7071 134.818 26.83H133.818ZM133.365 28.2764C133.116 28.5254 132.68 28.7 131.948 28.7V29.7C132.817 29.7 133.561 29.4946 134.072 28.9836L133.365 28.2764ZM131.948 28.7H127.748V29.7H131.948V28.7ZM128.248 29.2V27.43H127.248V29.2H128.248ZM127.748 27.93H131.348V26.93H127.748V27.93ZM131.348 27.93C131.568 27.93 131.774 27.914 131.952 27.8712C132.12 27.8309 132.331 27.751 132.482 27.5701L131.714 26.9299C131.765 26.869 131.801 26.8791 131.719 26.8988C131.647 26.916 131.528 26.93 131.348 26.93V27.93ZM132.452 27.6036C132.602 27.453 132.678 27.2611 132.719 27.0892C132.762 26.9125 132.778 26.7125 132.778 26.5H131.778C131.778 26.6675 131.765 26.7825 131.747 26.8558C131.728 26.9339 131.714 26.927 131.745 26.8964L132.452 27.6036ZM126.518 18.84H128.558V17.84H126.518V18.84ZM128.058 18.34V37H129.058V18.34H128.058ZM128.558 36.5H126.518V37.5H128.558V36.5ZM127.018 37V18.34H126.018V37H127.018ZM130.058 28.92H132.188V27.92H130.058V28.92ZM131.718 28.5894L134.808 37.1694L135.749 36.8306L132.659 28.2506L131.718 28.5894ZM135.278 36.5H133.058V37.5H135.278V36.5ZM133.53 36.835L130.53 28.255L129.586 28.585L132.586 37.165L133.53 36.835ZM137.446 18.34V17.84H136.946V18.34H137.446ZM139.516 18.34H140.016V17.84H139.516V18.34ZM139.516 37V37.5H140.016V37H139.516ZM137.446 37H136.946V37.5H137.446V37ZM143.536 26.41H144.036V25.91H143.536V26.41ZM143.536 28.18V28.68H144.036V28.18H143.536ZM138.766 28.18H138.266V28.68H138.766V28.18ZM138.766 26.41V25.91H138.266V26.41H138.766ZM144.436 18.34H144.936V17.84H144.436V18.34ZM144.436 20.11V20.61H144.936V20.11H144.436ZM138.766 20.11H138.266V20.61H138.766V20.11ZM138.766 18.34V17.84H138.266V18.34H138.766ZM144.646 35.23H145.146V34.73H144.646V35.23ZM144.646 37V37.5H145.146V37H144.646ZM138.766 37H138.266V37.5H138.766V37ZM138.766 35.23V34.73H138.266V35.23H138.766ZM137.446 18.84H139.516V17.84H137.446V18.84ZM139.016 18.34V37H140.016V18.34H139.016ZM139.516 36.5H137.446V37.5H139.516V36.5ZM137.946 37V18.34H136.946V37H137.946ZM143.036 26.41V28.18H144.036V26.41H143.036ZM143.536 27.68H138.766V28.68H143.536V27.68ZM139.266 28.18V26.41H138.266V28.18H139.266ZM138.766 26.91H143.536V25.91H138.766V26.91ZM143.936 18.34V20.11H144.936V18.34H143.936ZM144.436 19.61H138.766V20.61H144.436V19.61ZM139.266 20.11V18.34H138.266V20.11H139.266ZM138.766 18.84H144.436V17.84H138.766V18.84ZM144.146 35.23V37H145.146V35.23H144.146ZM144.646 36.5H138.766V37.5H144.646V36.5ZM139.266 37V35.23H138.266V37H139.266ZM138.766 35.73H144.646V34.73H138.766V35.73ZM152.305 18.34V17.84H151.805V18.34H152.305ZM154.345 18.34H154.845V17.84H154.345V18.34ZM154.345 37V37.5H154.845V37H154.345ZM152.305 37H151.805V37.5H152.305V37ZM157.345 18.34H157.845V17.84H157.345V18.34ZM157.345 20.11V20.61H157.845V20.11H157.345ZM149.305 20.11H148.805V20.61H149.305V20.11ZM149.305 18.34V17.84H148.805V18.34H149.305ZM152.305 18.84H154.345V17.84H152.305V18.84ZM153.845 18.34V37H154.845V18.34H153.845ZM154.345 36.5H152.305V37.5H154.345V36.5ZM152.805 37V18.34H151.805V37H152.805ZM156.845 18.34V20.11H157.845V18.34H156.845ZM157.345 19.61H149.305V20.61H157.345V19.61ZM149.805 20.11V18.34H148.805V20.11H149.805ZM149.305 18.84H157.345V17.84H149.305V18.84ZM164.765 32.77H164.265V33.27H164.765V32.77ZM164.585 20.29L164.201 20.6101L164.23 20.645L164.265 20.6741L164.585 20.29ZM162.815 20.11H162.315V20.61H162.815V20.11ZM162.815 18.34V17.84H162.315V18.34H162.815ZM166.205 18.94L165.842 19.2844L165.851 19.2937L165.861 19.3025L166.205 18.94ZM166.805 32.77V33.27H167.305V32.77H166.805ZM164.765 31.27V30.77H164.265V31.27H164.765ZM166.805 31.27H167.305V30.77H166.805V31.27ZM166.205 36.43L166.558 36.7836L166.205 36.43ZM162.605 37H162.105V37.5H162.605V37ZM162.605 35.23V34.73H162.105V35.23H162.605ZM164.585 35.05L164.231 34.6964L164.215 34.7125L164.201 34.7299L164.585 35.05ZM161.045 32.8V33.3H161.545V32.8H161.045ZM159.005 32.8H158.505V33.3H159.005V32.8ZM159.575 18.94L159.221 18.5864V18.5864L159.575 18.94ZM162.995 18.34H163.495V17.84H162.995V18.34ZM162.995 20.11V20.61H163.495V20.11H162.995ZM161.225 20.29L161.545 20.6741L161.562 20.6596L161.578 20.6436L161.225 20.29ZM161.045 31.03H161.545V30.53H161.045V31.03ZM161.225 35.05L160.871 35.4036L161.225 35.05ZM162.905 35.23H163.405V34.73H162.905V35.23ZM162.905 37V37.5H163.405V37H162.905ZM159.575 36.43L159.212 36.7744L159.221 36.7837L159.231 36.7925L159.575 36.43ZM159.005 31.03V30.53H158.505V31.03H159.005ZM165.265 32.77V21.04H164.265V32.77H165.265ZM165.265 21.04C165.265 20.8198 165.249 20.614 165.206 20.4358C165.166 20.2679 165.086 20.0567 164.905 19.9059L164.265 20.6741C164.204 20.6233 164.214 20.587 164.234 20.6692C164.251 20.741 164.265 20.8602 164.265 21.04H165.265ZM164.969 19.9699C164.818 19.7889 164.607 19.7091 164.439 19.6688C164.261 19.626 164.055 19.61 163.835 19.61V20.61C164.015 20.61 164.134 20.624 164.206 20.6412C164.288 20.6609 164.252 20.671 164.201 20.6101L164.969 19.9699ZM163.835 19.61H162.815V20.61H163.835V19.61ZM163.315 20.11V18.34H162.315V20.11H163.315ZM162.815 18.84H164.435V17.84H162.815V18.84ZM164.435 18.84C165.16 18.84 165.592 19.0213 165.842 19.2844L166.567 18.5956C166.057 18.0587 165.31 17.84 164.435 17.84V18.84ZM165.861 19.3025C166.124 19.5524 166.305 19.9848 166.305 20.71H167.305C167.305 19.8352 167.086 19.0876 166.549 18.5775L165.861 19.3025ZM166.305 20.71V32.77H167.305V20.71H166.305ZM166.805 32.27H164.765V33.27H166.805V32.27ZM165.265 34.3V31.27H164.265V34.3H165.265ZM164.765 31.77H166.805V30.77H164.765V31.77ZM166.305 31.27V34.63H167.305V31.27H166.305ZM166.305 34.63C166.305 35.3529 166.124 35.8033 165.851 36.0764L166.558 36.7836C167.085 36.2567 167.305 35.5071 167.305 34.63H166.305ZM165.851 36.0764C165.602 36.3254 165.167 36.5 164.435 36.5V37.5C165.303 37.5 166.047 37.2946 166.558 36.7836L165.851 36.0764ZM164.435 36.5H162.605V37.5H164.435V36.5ZM163.105 37V35.23H162.105V37H163.105ZM162.605 35.73H163.835V34.73H162.605V35.73ZM163.835 35.73C164.055 35.73 164.261 35.714 164.439 35.6712C164.607 35.6309 164.818 35.551 164.969 35.3701L164.201 34.7299C164.252 34.669 164.288 34.6791 164.206 34.6988C164.134 34.716 164.015 34.73 163.835 34.73V35.73ZM164.938 35.4036C165.089 35.253 165.165 35.0611 165.206 34.8892C165.248 34.7125 165.265 34.5125 165.265 34.3H164.265C164.265 34.4675 164.251 34.5825 164.234 34.6558C164.215 34.7339 164.201 34.727 164.231 34.6964L164.938 35.4036ZM160.545 21.04V32.8H161.545V21.04H160.545ZM161.045 32.3H159.005V33.3H161.045V32.3ZM159.505 32.8V20.71H158.505V32.8H159.505ZM159.505 20.71C159.505 19.9784 159.68 19.5425 159.928 19.2936L159.221 18.5864C158.71 19.0975 158.505 19.8416 158.505 20.71H159.505ZM159.928 19.2936C160.202 19.0204 160.652 18.84 161.375 18.84V17.84C160.498 17.84 159.748 18.0596 159.221 18.5864L159.928 19.2936ZM161.375 18.84H162.995V17.84H161.375V18.84ZM162.495 18.34V20.11H163.495V18.34H162.495ZM162.995 19.61H161.975V20.61H162.995V19.61ZM161.975 19.61C161.762 19.61 161.562 19.6264 161.386 19.6688C161.214 19.7101 161.022 19.7859 160.871 19.9364L161.578 20.6436C161.548 20.6741 161.541 20.6599 161.619 20.6412C161.692 20.6236 161.807 20.61 161.975 20.61V19.61ZM160.905 19.9059C160.724 20.0567 160.644 20.2679 160.604 20.4358C160.561 20.614 160.545 20.8198 160.545 21.04H161.545C161.545 20.8602 161.559 20.741 161.576 20.6692C161.596 20.587 161.606 20.6233 161.545 20.6741L160.905 19.9059ZM160.545 31.03V34.3H161.545V31.03H160.545ZM160.545 34.3C160.545 34.5125 160.561 34.7125 160.604 34.8892C160.645 35.0611 160.721 35.253 160.871 35.4036L161.578 34.6964C161.609 34.727 161.595 34.7339 161.576 34.6558C161.558 34.5825 161.545 34.4675 161.545 34.3H160.545ZM160.871 35.4036C161.022 35.5541 161.214 35.6299 161.386 35.6712C161.562 35.7136 161.762 35.73 161.975 35.73V34.73C161.807 34.73 161.692 34.7164 161.619 34.6988C161.541 34.6801 161.548 34.6659 161.578 34.6964L160.871 35.4036ZM161.975 35.73H162.905V34.73H161.975V35.73ZM162.405 35.23V37H163.405V35.23H162.405ZM162.905 36.5H161.375V37.5H162.905V36.5ZM161.375 36.5C160.646 36.5 160.192 36.3264 159.919 36.0675L159.231 36.7925C159.758 37.2936 160.504 37.5 161.375 37.5V36.5ZM159.937 36.0856C159.679 35.8131 159.505 35.3591 159.505 34.63H158.505C158.505 35.5009 158.711 36.2469 159.212 36.7744L159.937 36.0856ZM159.505 34.63V31.03H158.505V34.63H159.505ZM159.005 31.53H161.045V30.53H159.005V31.53ZM179.562 18.34V17.84H179.131L179.067 18.2659L179.562 18.34ZM181.632 18.34L182.126 18.4194L182.219 17.84H181.632V18.34ZM178.632 37V37.5H179.058L179.126 37.0794L178.632 37ZM175.362 37L174.868 37.0794L174.936 37.5H175.362V37ZM172.362 18.34V17.84H171.775L171.868 18.4194L172.362 18.34ZM174.432 18.34L174.927 18.2668L174.863 17.84H174.432V18.34ZM176.982 35.56L176.487 35.6332L177.476 35.6341L176.982 35.56ZM179.562 18.84H181.632V17.84H179.562V18.84ZM181.138 18.2606L178.138 36.9206L179.126 37.0794L182.126 18.4194L181.138 18.2606ZM178.632 36.5H175.362V37.5H178.632V36.5ZM175.856 36.9206L172.856 18.2606L171.868 18.4194L174.868 37.0794L175.856 36.9206ZM172.362 18.84H174.432V17.84H172.362V18.84ZM173.937 18.4132L176.487 35.6332L177.477 35.4868L174.927 18.2668L173.937 18.4132ZM177.476 35.6341L180.056 18.4141L179.067 18.2659L176.487 35.4859L177.476 35.6341ZM183.742 18.34V17.84H183.242V18.34H183.742ZM185.782 18.34H186.282V17.84H185.782V18.34ZM185.782 37V37.5H186.282V37H185.782ZM183.742 37H183.242V37.5H183.742V37ZM183.742 18.84H185.782V17.84H183.742V18.84ZM185.282 18.34V37H186.282V18.34H185.282ZM185.782 36.5H183.742V37.5H185.782V36.5ZM184.242 37V18.34H183.242V37H184.242ZM189.389 18.34V17.84H188.889V18.34H189.389ZM191.459 18.34H191.959V17.84H191.459V18.34ZM191.459 37V37.5H191.959V37H191.459ZM189.389 37H188.889V37.5H189.389V37ZM195.479 26.41H195.979V25.91H195.479V26.41ZM195.479 28.18V28.68H195.979V28.18H195.479ZM190.709 28.18H190.209V28.68H190.709V28.18ZM190.709 26.41V25.91H190.209V26.41H190.709ZM196.379 18.34H196.879V17.84H196.379V18.34ZM196.379 20.11V20.61H196.879V20.11H196.379ZM190.709 20.11H190.209V20.61H190.709V20.11ZM190.709 18.34V17.84H190.209V18.34H190.709ZM196.589 35.23H197.089V34.73H196.589V35.23ZM196.589 37V37.5H197.089V37H196.589ZM190.709 37H190.209V37.5H190.709V37ZM190.709 35.23V34.73H190.209V35.23H190.709ZM189.389 18.84H191.459V17.84H189.389V18.84ZM190.959 18.34V37H191.959V18.34H190.959ZM191.459 36.5H189.389V37.5H191.459V36.5ZM189.889 37V18.34H188.889V37H189.889ZM194.979 26.41V28.18H195.979V26.41H194.979ZM195.479 27.68H190.709V28.68H195.479V27.68ZM191.209 28.18V26.41H190.209V28.18H191.209ZM190.709 26.91H195.479V25.91H190.709V26.91ZM195.879 18.34V20.11H196.879V18.34H195.879ZM196.379 19.61H190.709V20.61H196.379V19.61ZM191.209 20.11V18.34H190.209V20.11H191.209ZM190.709 18.84H196.379V17.84H190.709V18.84ZM196.089 35.23V37H197.089V35.23H196.089ZM196.589 36.5H190.709V37.5H196.589V36.5ZM191.209 37V35.23H190.209V37H191.209ZM190.709 35.73H196.589V34.73H190.709V35.73ZM211.302 18.34V17.84H210.864L210.806 18.2744L211.302 18.34ZM213.372 18.34L213.867 18.4124L213.951 17.84H213.372V18.34ZM210.642 37V37.5H211.074L211.137 37.0724L210.642 37ZM207.522 37L207.027 37.0703L207.088 37.5H207.522V37ZM205.422 22.21L205.917 22.1397L204.927 22.1407L205.422 22.21ZM203.352 37V37.5H203.787L203.847 37.0693L203.352 37ZM200.232 37L199.737 37.0724L199.8 37.5H200.232V37ZM197.502 18.34V17.84H196.924L197.007 18.4124L197.502 18.34ZM199.572 18.34L200.068 18.2752L200.011 17.84H199.572V18.34ZM201.822 35.56L201.326 35.6248L202.317 35.6282L201.822 35.56ZM204.192 18.34V17.84H203.756L203.697 18.2718L204.192 18.34ZM206.652 18.34L207.147 18.2718L207.088 17.84H206.652V18.34ZM209.022 35.56L208.527 35.6282L209.518 35.6256L209.022 35.56ZM211.302 18.84H213.372V17.84H211.302V18.84ZM212.877 18.2676L210.147 36.9276L211.137 37.0724L213.867 18.4124L212.877 18.2676ZM210.642 36.5H207.522V37.5H210.642V36.5ZM208.017 36.9297L205.917 22.1397L204.927 22.2803L207.027 37.0703L208.017 36.9297ZM204.927 22.1407L202.857 36.9307L203.847 37.0693L205.917 22.2793L204.927 22.1407ZM203.352 36.5H200.232V37.5H203.352V36.5ZM200.727 36.9276L197.997 18.2676L197.007 18.4124L199.737 37.0724L200.727 36.9276ZM197.502 18.84H199.572V17.84H197.502V18.84ZM199.076 18.4048L201.326 35.6248L202.318 35.4952L200.068 18.2752L199.076 18.4048ZM202.317 35.6282L204.687 18.4082L203.697 18.2718L201.327 35.4918L202.317 35.6282ZM204.192 18.84H206.652V17.84H204.192V18.84ZM206.157 18.4082L208.527 35.6282L209.517 35.4918L207.147 18.2718L206.157 18.4082ZM209.518 35.6256L211.798 18.4056L210.806 18.2744L208.526 35.4944L209.518 35.6256ZM224.823 32.77H224.323V33.27H224.823V32.77ZM224.643 20.29L224.259 20.6101L224.288 20.645L224.323 20.6741L224.643 20.29ZM222.873 20.11H222.373V20.61H222.873V20.11ZM222.873 18.34V17.84H222.373V18.34H222.873ZM226.263 18.94L225.901 19.2844L225.91 19.2937L225.919 19.3025L226.263 18.94ZM226.863 32.77V33.27H227.363V32.77H226.863ZM224.823 31.27V30.77H224.323V31.27H224.823ZM226.863 31.27H227.363V30.77H226.863V31.27ZM226.263 36.43L226.617 36.7836L226.263 36.43ZM222.663 37H222.163V37.5H222.663V37ZM222.663 35.23V34.73H222.163V35.23H222.663ZM224.643 35.05L224.29 34.6964L224.274 34.7125L224.259 34.7299L224.643 35.05ZM221.103 32.8V33.3H221.603V32.8H221.103ZM219.063 32.8H218.563V33.3H219.063V32.8ZM219.633 18.94L219.28 18.5864V18.5864L219.633 18.94ZM223.053 18.34H223.553V17.84H223.053V18.34ZM223.053 20.11V20.61H223.553V20.11H223.053ZM221.283 20.29L221.604 20.6741L221.621 20.6596L221.637 20.6436L221.283 20.29ZM221.103 31.03H221.603V30.53H221.103V31.03ZM221.283 35.05L220.93 35.4036L221.283 35.05ZM222.963 35.23H223.463V34.73H222.963V35.23ZM222.963 37V37.5H223.463V37H222.963ZM219.633 36.43L219.271 36.7744L219.28 36.7837L219.289 36.7925L219.633 36.43ZM219.063 31.03V30.53H218.563V31.03H219.063ZM225.323 32.77V21.04H224.323V32.77H225.323ZM225.323 21.04C225.323 20.8198 225.307 20.614 225.265 20.4358C225.224 20.2679 225.145 20.0567 224.964 19.9059L224.323 20.6741C224.262 20.6233 224.273 20.587 224.292 20.6692C224.31 20.741 224.323 20.8602 224.323 21.04H225.323ZM225.028 19.9699C224.877 19.7889 224.666 19.7091 224.498 19.6688C224.319 19.626 224.114 19.61 223.893 19.61V20.61C224.073 20.61 224.192 20.624 224.264 20.6412C224.346 20.6609 224.31 20.671 224.259 20.6101L225.028 19.9699ZM223.893 19.61H222.873V20.61H223.893V19.61ZM223.373 20.11V18.34H222.373V20.11H223.373ZM222.873 18.84H224.493V17.84H222.873V18.84ZM224.493 18.84C225.219 18.84 225.651 19.0213 225.901 19.2844L226.626 18.5956C226.116 18.0587 225.368 17.84 224.493 17.84V18.84ZM225.919 19.3025C226.182 19.5524 226.363 19.9848 226.363 20.71H227.363C227.363 19.8352 227.145 19.0876 226.608 18.5775L225.919 19.3025ZM226.363 20.71V32.77H227.363V20.71H226.363ZM226.863 32.27H224.823V33.27H226.863V32.27ZM225.323 34.3V31.27H224.323V34.3H225.323ZM224.823 31.77H226.863V30.77H224.823V31.77ZM226.363 31.27V34.63H227.363V31.27H226.363ZM226.363 34.63C226.363 35.3529 226.183 35.8033 225.91 36.0764L226.617 36.7836C227.144 36.2567 227.363 35.5071 227.363 34.63H226.363ZM225.91 36.0764C225.661 36.3254 225.225 36.5 224.493 36.5V37.5C225.362 37.5 226.106 37.2946 226.617 36.7836L225.91 36.0764ZM224.493 36.5H222.663V37.5H224.493V36.5ZM223.163 37V35.23H222.163V37H223.163ZM222.663 35.73H223.893V34.73H222.663V35.73ZM223.893 35.73C224.114 35.73 224.319 35.714 224.498 35.6712C224.666 35.6309 224.877 35.551 225.028 35.3701L224.259 34.7299C224.31 34.669 224.346 34.6791 224.264 34.6988C224.192 34.716 224.073 34.73 223.893 34.73V35.73ZM224.997 35.4036C225.148 35.253 225.223 35.0611 225.265 34.8892C225.307 34.7125 225.323 34.5125 225.323 34.3H224.323C224.323 34.4675 224.31 34.5825 224.292 34.6558C224.274 34.7339 224.259 34.727 224.29 34.6964L224.997 35.4036ZM220.603 21.04V32.8H221.603V21.04H220.603ZM221.103 32.3H219.063V33.3H221.103V32.3ZM219.563 32.8V20.71H218.563V32.8H219.563ZM219.563 20.71C219.563 19.9784 219.738 19.5425 219.987 19.2936L219.28 18.5864C218.769 19.0975 218.563 19.8416 218.563 20.71H219.563ZM219.987 19.2936C220.26 19.0204 220.711 18.84 221.433 18.84V17.84C220.556 17.84 219.807 18.0596 219.28 18.5864L219.987 19.2936ZM221.433 18.84H223.053V17.84H221.433V18.84ZM222.553 18.34V20.11H223.553V18.34H222.553ZM223.053 19.61H222.033V20.61H223.053V19.61ZM222.033 19.61C221.821 19.61 221.621 19.6264 221.444 19.6688C221.272 19.7101 221.08 19.7859 220.93 19.9364L221.637 20.6436C221.606 20.6741 221.6 20.6599 221.678 20.6412C221.751 20.6236 221.866 20.61 222.033 20.61V19.61ZM220.963 19.9059C220.782 20.0567 220.703 20.2679 220.662 20.4358C220.62 20.614 220.603 20.8198 220.603 21.04H221.603C221.603 20.8602 221.617 20.741 221.635 20.6692C221.654 20.587 221.665 20.6233 221.604 20.6741L220.963 19.9059ZM220.603 31.03V34.3H221.603V31.03H220.603ZM220.603 34.3C220.603 34.5125 220.62 34.7125 220.662 34.8892C220.704 35.0611 220.779 35.253 220.93 35.4036L221.637 34.6964C221.668 34.727 221.653 34.7339 221.635 34.6558C221.617 34.5825 221.603 34.4675 221.603 34.3H220.603ZM220.93 35.4036C221.08 35.5541 221.272 35.6299 221.444 35.6712C221.621 35.7136 221.821 35.73 222.033 35.73V34.73C221.866 34.73 221.751 34.7164 221.678 34.6988C221.6 34.6801 221.606 34.6659 221.637 34.6964L220.93 35.4036ZM222.033 35.73H222.963V34.73H222.033V35.73ZM222.463 35.23V37H223.463V35.23H222.463ZM222.963 36.5H221.433V37.5H222.963V36.5ZM221.433 36.5C220.704 36.5 220.25 36.3264 219.978 36.0675L219.289 36.7925C219.817 37.2936 220.563 37.5 221.433 37.5V36.5ZM219.996 36.0856C219.737 35.8131 219.563 35.3591 219.563 34.63H218.563C218.563 35.5009 218.77 36.2469 219.271 36.7744L219.996 36.0856ZM219.563 34.63V31.03H218.563V34.63H219.563ZM219.063 31.53H221.103V30.53H219.063V31.53ZM235.694 18.34V17.84H235.194V18.34H235.694ZM237.734 18.34H238.234V17.84H237.734V18.34ZM237.134 36.43L237.488 36.7836L237.134 36.43ZM233.534 37H233.034V37.5H233.534V37ZM233.534 35.23V34.73H233.034V35.23H233.534ZM235.514 35.05L235.16 34.6964L235.144 34.7125L235.13 34.7299L235.514 35.05ZM231.974 18.34H232.474V17.84H231.974V18.34ZM232.154 35.05L232.508 34.6964L232.154 35.05ZM233.834 35.23H234.334V34.73H233.834V35.23ZM233.834 37V37.5H234.334V37H233.834ZM230.504 36.43L230.142 36.7744L230.15 36.7837L230.16 36.7925L230.504 36.43ZM229.934 18.34V17.84H229.434V18.34H229.934ZM236.194 34.3V18.34H235.194V34.3H236.194ZM235.694 18.84H237.734V17.84H235.694V18.84ZM237.234 18.34V34.63H238.234V18.34H237.234ZM237.234 34.63C237.234 35.3529 237.054 35.8033 236.78 36.0764L237.488 36.7836C238.014 36.2567 238.234 35.5071 238.234 34.63H237.234ZM236.78 36.0764C236.532 36.3254 236.096 36.5 235.364 36.5V37.5C236.232 37.5 236.977 37.2946 237.488 36.7836L236.78 36.0764ZM235.364 36.5H233.534V37.5H235.364V36.5ZM234.034 37V35.23H233.034V37H234.034ZM233.534 35.73H234.764V34.73H233.534V35.73ZM234.764 35.73C234.984 35.73 235.19 35.714 235.368 35.6712C235.536 35.6309 235.747 35.551 235.898 35.3701L235.13 34.7299C235.181 34.669 235.217 34.6791 235.135 34.6988C235.063 34.716 234.944 34.73 234.764 34.73V35.73ZM235.868 35.4036C236.018 35.253 236.094 35.0611 236.135 34.8892C236.178 34.7125 236.194 34.5125 236.194 34.3H235.194C235.194 34.4675 235.18 34.5825 235.163 34.6558C235.144 34.7339 235.13 34.727 235.16 34.6964L235.868 35.4036ZM231.474 18.34V34.3H232.474V18.34H231.474ZM231.474 34.3C231.474 34.5125 231.49 34.7125 231.533 34.8892C231.574 35.0611 231.65 35.253 231.8 35.4036L232.508 34.6964C232.538 34.727 232.524 34.7339 232.505 34.6558C232.488 34.5825 232.474 34.4675 232.474 34.3H231.474ZM231.8 35.4036C231.951 35.5541 232.143 35.6299 232.315 35.6712C232.492 35.7136 232.692 35.73 232.904 35.73V34.73C232.737 34.73 232.622 34.7164 232.548 34.6988C232.47 34.6801 232.477 34.6659 232.508 34.6964L231.8 35.4036ZM232.904 35.73H233.834V34.73H232.904V35.73ZM233.334 35.23V37H234.334V35.23H233.334ZM233.834 36.5H232.304V37.5H233.834V36.5ZM232.304 36.5C231.575 36.5 231.121 36.3264 230.848 36.0675L230.16 36.7925C230.687 37.2936 231.433 37.5 232.304 37.5V36.5ZM230.867 36.0856C230.608 35.8131 230.434 35.3591 230.434 34.63H229.434C229.434 35.5009 229.64 36.2469 230.142 36.7744L230.867 36.0856ZM230.434 34.63V18.34H229.434V34.63H230.434ZM229.934 18.84H231.974V17.84H229.934V18.84ZM246.532 20.29L246.148 20.6101L246.177 20.645L246.212 20.6741L246.532 20.29ZM240.952 20.11H240.452V20.61H240.952V20.11ZM240.952 18.34V17.84H240.452V18.34H240.952ZM248.152 18.94L247.789 19.2844L247.798 19.2937L247.807 19.3025L248.152 18.94ZM248.152 28.63L248.505 28.9836L248.152 28.63ZM242.182 29.2H241.682V29.7H242.182V29.2ZM242.182 27.43V26.93H241.682V27.43H242.182ZM246.532 27.25L246.178 26.8964L246.162 26.9125L246.148 26.9299L246.532 27.25ZM240.952 18.34V17.84H240.452V18.34H240.952ZM242.992 18.34H243.492V17.84H242.992V18.34ZM242.992 37V37.5H243.492V37H242.992ZM240.952 37H240.452V37.5H240.952V37ZM244.492 28.42V27.92H243.787L244.02 28.585L244.492 28.42ZM246.622 28.42L247.092 28.2506L246.973 27.92H246.622V28.42ZM249.712 37V37.5H250.423L250.182 36.8306L249.712 37ZM247.492 37L247.02 37.165L247.137 37.5H247.492V37ZM247.212 26.5V21.04H246.212V26.5H247.212ZM247.212 21.04C247.212 20.8198 247.196 20.614 247.153 20.4358C247.113 20.2679 247.033 20.0567 246.852 19.9059L246.212 20.6741C246.151 20.6233 246.161 20.587 246.181 20.6692C246.198 20.741 246.212 20.8602 246.212 21.04H247.212ZM246.916 19.9699C246.765 19.7889 246.554 19.7091 246.386 19.6688C246.208 19.626 246.002 19.61 245.782 19.61V20.61C245.962 20.61 246.081 20.624 246.153 20.6412C246.235 20.6609 246.198 20.671 246.148 20.6101L246.916 19.9699ZM245.782 19.61H240.952V20.61H245.782V19.61ZM241.452 20.11V18.34H240.452V20.11H241.452ZM240.952 18.84H246.382V17.84H240.952V18.84ZM246.382 18.84C247.107 18.84 247.539 19.0213 247.789 19.2844L248.514 18.5956C248.004 18.0587 247.257 17.84 246.382 17.84V18.84ZM247.807 19.3025C248.07 19.5524 248.252 19.9848 248.252 20.71H249.252C249.252 19.8352 249.033 19.0876 248.496 18.5775L247.807 19.3025ZM248.252 20.71V26.83H249.252V20.71H248.252ZM248.252 26.83C248.252 27.5529 248.071 28.0033 247.798 28.2764L248.505 28.9836C249.032 28.4567 249.252 27.7071 249.252 26.83H248.252ZM247.798 28.2764C247.549 28.5254 247.113 28.7 246.382 28.7V29.7C247.25 29.7 247.994 29.4946 248.505 28.9836L247.798 28.2764ZM246.382 28.7H242.182V29.7H246.382V28.7ZM242.682 29.2V27.43H241.682V29.2H242.682ZM242.182 27.93H245.782V26.93H242.182V27.93ZM245.782 27.93C246.002 27.93 246.208 27.914 246.386 27.8712C246.554 27.8309 246.765 27.751 246.916 27.5701L246.148 26.9299C246.198 26.869 246.235 26.8791 246.153 26.8988C246.081 26.916 245.962 26.93 245.782 26.93V27.93ZM246.885 27.6036C247.036 27.453 247.112 27.2611 247.153 27.0892C247.195 26.9125 247.212 26.7125 247.212 26.5H246.212C246.212 26.6675 246.198 26.7825 246.181 26.8558C246.162 26.9339 246.148 26.927 246.178 26.8964L246.885 27.6036ZM240.952 18.84H242.992V17.84H240.952V18.84ZM242.492 18.34V37H243.492V18.34H242.492ZM242.992 36.5H240.952V37.5H242.992V36.5ZM241.452 37V18.34H240.452V37H241.452ZM244.492 28.92H246.622V27.92H244.492V28.92ZM246.151 28.5894L249.241 37.1694L250.182 36.8306L247.092 28.2506L246.151 28.5894ZM249.712 36.5H247.492V37.5H249.712V36.5ZM247.964 36.835L244.964 28.255L244.02 28.585L247.02 37.165L247.964 36.835ZM262.346 32.95V33.45H262.733L262.83 33.0753L262.346 32.95ZM260.156 32.95L259.672 33.0753L259.769 33.45H260.156V32.95ZM257.546 22.87L258.03 22.7447L257.046 22.87H257.546ZM257.546 37V37.5H258.046V37H257.546ZM255.776 37H255.276V37.5H255.776V37ZM255.776 18.34V17.84H255.276V18.34H255.776ZM258.026 18.34L258.509 18.2108L258.41 17.84H258.026V18.34ZM261.236 30.34L260.753 30.4692L261.234 32.2665L261.719 30.4703L261.236 30.34ZM264.476 18.34V17.84H264.093L263.993 18.2097L264.476 18.34ZM266.726 18.34H267.226V17.84H266.726V18.34ZM266.726 37V37.5H267.226V37H266.726ZM264.956 37H264.456V37.5H264.956V37ZM264.956 22.87H265.456L264.472 22.7447L264.956 22.87ZM262.346 32.45H260.156V33.45H262.346V32.45ZM260.64 32.8247L258.03 22.7447L257.062 22.9953L259.672 33.0753L260.64 32.8247ZM257.046 22.87V37H258.046V22.87H257.046ZM257.546 36.5H255.776V37.5H257.546V36.5ZM256.276 37V18.34H255.276V37H256.276ZM255.776 18.84H258.026V17.84H255.776V18.84ZM257.543 18.4692L260.753 30.4692L261.719 30.2108L258.509 18.2108L257.543 18.4692ZM261.719 30.4703L264.959 18.4703L263.993 18.2097L260.753 30.2097L261.719 30.4703ZM264.476 18.84H266.726V17.84H264.476V18.84ZM266.226 18.34V37H267.226V18.34H266.226ZM266.726 36.5H264.956V37.5H266.726V36.5ZM265.456 37V22.87H264.456V37H265.456ZM264.472 22.7447L261.862 32.8247L262.83 33.0753L265.44 22.9953L264.472 22.7447ZM270.014 18.34V17.84H269.514V18.34H270.014ZM272.084 18.34H272.584V17.84H272.084V18.34ZM272.084 37V37.5H272.584V37H272.084ZM270.014 37H269.514V37.5H270.014V37ZM276.104 26.41H276.604V25.91H276.104V26.41ZM276.104 28.18V28.68H276.604V28.18H276.104ZM271.334 28.18H270.834V28.68H271.334V28.18ZM271.334 26.41V25.91H270.834V26.41H271.334ZM277.004 18.34H277.504V17.84H277.004V18.34ZM277.004 20.11V20.61H277.504V20.11H277.004ZM271.334 20.11H270.834V20.61H271.334V20.11ZM271.334 18.34V17.84H270.834V18.34H271.334ZM277.214 35.23H277.714V34.73H277.214V35.23ZM277.214 37V37.5H277.714V37H277.214ZM271.334 37H270.834V37.5H271.334V37ZM271.334 35.23V34.73H270.834V35.23H271.334ZM270.014 18.84H272.084V17.84H270.014V18.84ZM271.584 18.34V37H272.584V18.34H271.584ZM272.084 36.5H270.014V37.5H272.084V36.5ZM270.514 37V18.34H269.514V37H270.514ZM275.604 26.41V28.18H276.604V26.41H275.604ZM276.104 27.68H271.334V28.68H276.104V27.68ZM271.834 28.18V26.41H270.834V28.18H271.834ZM271.334 26.91H276.104V25.91H271.334V26.91ZM276.504 18.34V20.11H277.504V18.34H276.504ZM277.004 19.61H271.334V20.61H277.004V19.61ZM271.834 20.11V18.34H270.834V20.11H271.834ZM271.334 18.84H277.004V17.84H271.334V18.84ZM276.714 35.23V37H277.714V35.23H276.714ZM277.214 36.5H271.334V37.5H277.214V36.5ZM271.834 37V35.23H270.834V37H271.834ZM271.334 35.73H277.214V34.73H271.334V35.73ZM285.597 18.34V17.84H285.097V18.34H285.597ZM287.487 18.34H287.987V17.84H287.487V18.34ZM287.487 37V37.5H287.987V37H287.487ZM285.237 37L284.754 37.1293L284.853 37.5H285.237V37ZM281.367 22.54L281.85 22.4107L280.867 22.54H281.367ZM281.367 37V37.5H281.867V37H281.367ZM279.477 37H278.977V37.5H279.477V37ZM279.477 18.34V17.84H278.977V18.34H279.477ZM281.877 18.34L282.36 18.2112L282.261 17.84H281.877V18.34ZM285.597 32.29L285.114 32.4188L286.097 32.29H285.597ZM285.597 18.84H287.487V17.84H285.597V18.84ZM286.987 18.34V37H287.987V18.34H286.987ZM287.487 36.5H285.237V37.5H287.487V36.5ZM285.72 36.8707L281.85 22.4107L280.884 22.6693L284.754 37.1293L285.72 36.8707ZM280.867 22.54V37H281.867V22.54H280.867ZM281.367 36.5H279.477V37.5H281.367V36.5ZM279.977 37V18.34H278.977V37H279.977ZM279.477 18.84H281.877V17.84H279.477V18.84ZM281.394 18.4688L285.114 32.4188L286.08 32.1612L282.36 18.2112L281.394 18.4688ZM286.097 32.29V18.34H285.097V32.29H286.097ZM296.456 18.34V17.84H295.956V18.34H296.456ZM298.496 18.34H298.996V17.84H298.496V18.34ZM297.896 36.43L298.249 36.7836L297.896 36.43ZM294.296 37H293.796V37.5H294.296V37ZM294.296 35.23V34.73H293.796V35.23H294.296ZM296.276 35.05L295.922 34.6964L295.906 34.7125L295.892 34.7299L296.276 35.05ZM292.736 18.34H293.236V17.84H292.736V18.34ZM292.916 35.05L293.269 34.6964L292.916 35.05ZM294.596 35.23H295.096V34.73H294.596V35.23ZM294.596 37V37.5H295.096V37H294.596ZM291.266 36.43L290.903 36.7744L290.912 36.7837L290.921 36.7925L291.266 36.43ZM290.696 18.34V17.84H290.196V18.34H290.696ZM296.956 34.3V18.34H295.956V34.3H296.956ZM296.456 18.84H298.496V17.84H296.456V18.84ZM297.996 18.34V34.63H298.996V18.34H297.996ZM297.996 34.63C297.996 35.3529 297.815 35.8033 297.542 36.0764L298.249 36.7836C298.776 36.2567 298.996 35.5071 298.996 34.63H297.996ZM297.542 36.0764C297.293 36.3254 296.857 36.5 296.126 36.5V37.5C296.994 37.5 297.738 37.2946 298.249 36.7836L297.542 36.0764ZM296.126 36.5H294.296V37.5H296.126V36.5ZM294.796 37V35.23H293.796V37H294.796ZM294.296 35.73H295.526V34.73H294.296V35.73ZM295.526 35.73C295.746 35.73 295.952 35.714 296.13 35.6712C296.298 35.6309 296.509 35.551 296.66 35.3701L295.892 34.7299C295.942 34.669 295.979 34.6791 295.897 34.6988C295.825 34.716 295.706 34.73 295.526 34.73V35.73ZM296.629 35.4036C296.78 35.253 296.856 35.0611 296.897 34.8892C296.939 34.7125 296.956 34.5125 296.956 34.3H295.956C295.956 34.4675 295.942 34.5825 295.925 34.6558C295.906 34.7339 295.892 34.727 295.922 34.6964L296.629 35.4036ZM292.236 18.34V34.3H293.236V18.34H292.236ZM292.236 34.3C292.236 34.5125 292.252 34.7125 292.295 34.8892C292.336 35.0611 292.412 35.253 292.562 35.4036L293.269 34.6964C293.3 34.727 293.286 34.7339 293.267 34.6558C293.249 34.5825 293.236 34.4675 293.236 34.3H292.236ZM292.562 35.4036C292.713 35.5541 292.905 35.6299 293.077 35.6712C293.253 35.7136 293.453 35.73 293.666 35.73V34.73C293.498 34.73 293.383 34.7164 293.31 34.6988C293.232 34.6801 293.239 34.6659 293.269 34.6964L292.562 35.4036ZM293.666 35.73H294.596V34.73H293.666V35.73ZM294.096 35.23V37H295.096V35.23H294.096ZM294.596 36.5H293.066V37.5H294.596V36.5ZM293.066 36.5C292.337 36.5 291.883 36.3264 291.61 36.0675L290.921 36.7925C291.449 37.2936 292.195 37.5 293.066 37.5V36.5ZM291.628 36.0856C291.369 35.8131 291.196 35.3591 291.196 34.63H290.196C290.196 35.5009 290.402 36.2469 290.903 36.7744L291.628 36.0856ZM291.196 34.63V18.34H290.196V34.63H291.196ZM290.696 18.84H292.736V17.84H290.696V18.84Z" fill="black" mask="url(#path-3-outside-1_312_1462)"/>
</svg>
