<svg width="559" height="17" viewBox="0 0 559 17" fill="none" xmlns="http://www.w3.org/2000/svg">
<mask id="path-1-inside-1_19_166" fill="white">
<path d="M0 0L559 0V17L0 17L0 0Z"/>
</mask>
<path d="M0 1L559 1V-1L0 -1L0 1ZM559 16L0 16L0 18L559 18V16Z" fill="black" mask="url(#path-1-inside-1_19_166)"/>
<g opacity="0.8">
<circle cx="2" cy="8.5" r="2" fill="black"/>
<circle cx="2" cy="8.5" r="1" fill="#FD0001"/>
</g>
<path opacity="0.8" d="M12.7698 9.677V8.858C12.7698 8.792 12.7518 8.744 12.7158 8.714C12.6798 8.678 12.6228 8.66 12.5448 8.66H11.6808C11.2128 8.66 10.8918 8.555 10.7178 8.345C10.5498 8.135 10.4658 7.862 10.4658 7.526V6.338C10.4658 6.002 10.5648 5.732 10.7628 5.528C10.9608 5.324 11.2998 5.222 11.7798 5.222H13.0128C13.4928 5.222 13.8318 5.324 14.0298 5.528C14.2278 5.732 14.3268 6.002 14.3268 6.338V7.031H12.7518V6.545C12.7518 6.479 12.7338 6.431 12.6978 6.401C12.6618 6.365 12.6048 6.347 12.5268 6.347H12.2658C12.1878 6.347 12.1308 6.365 12.0948 6.401C12.0588 6.431 12.0408 6.479 12.0408 6.545V7.4C12.0408 7.466 12.0588 7.517 12.0948 7.553C12.1308 7.583 12.1878 7.598 12.2658 7.598H13.1118C13.5798 7.598 13.9008 7.697 14.0748 7.895C14.2548 8.093 14.3448 8.36 14.3448 8.696V9.884C14.3448 10.22 14.2458 10.49 14.0478 10.694C13.8498 10.898 13.5108 11 13.0308 11H11.8068C11.3268 11 10.9848 10.898 10.7808 10.694C10.5828 10.49 10.4838 10.22 10.4838 9.884V9.191H12.0588V9.677C12.0588 9.743 12.0768 9.794 12.1128 9.83C12.1488 9.86 12.2058 9.875 12.2838 9.875H12.5448C12.6228 9.875 12.6798 9.86 12.7158 9.83C12.7518 9.794 12.7698 9.743 12.7698 9.677ZM17.8567 7.589V8.714H16.2367V7.589H17.8567ZM14.9767 5.222H16.5247V11H14.9767V5.222ZM17.6587 5.222H19.2067V11H17.6587V5.222ZM23.4619 9.02V10.136H20.5729V9.02H23.4619ZM24.4519 11H22.8679L22.0039 6.941L21.1129 11H19.5649L21.0499 5.222H22.9669L24.4519 11ZM26.3957 8.048H28.0337L29.1677 11H27.4757L26.3957 8.048ZM28.0337 8.048H26.3957L27.4667 5.222H29.1587L28.0337 8.048ZM24.8117 5.222H26.3867V11H24.8117V5.222ZM29.5841 5.222H31.1591V11H29.5841V5.222ZM32.7881 7.526V8.651H30.2591V7.526H32.7881ZM33.0491 5.222V6.347H30.1421V5.222H33.0491ZM33.1301 9.875V11H30.1421V9.875H33.1301ZM35.8411 9.677V8.858C35.8411 8.792 35.8231 8.744 35.7871 8.714C35.7511 8.678 35.6941 8.66 35.6161 8.66H34.7521C34.2841 8.66 33.9631 8.555 33.7891 8.345C33.6211 8.135 33.5371 7.862 33.5371 7.526V6.338C33.5371 6.002 33.6361 5.732 33.8341 5.528C34.0321 5.324 34.3711 5.222 34.8511 5.222H36.0841C36.5641 5.222 36.9031 5.324 37.1011 5.528C37.2991 5.732 37.3981 6.002 37.3981 6.338V7.031H35.8231V6.545C35.8231 6.479 35.8051 6.431 35.7691 6.401C35.7331 6.365 35.6761 6.347 35.5981 6.347H35.3371C35.2591 6.347 35.2021 6.365 35.1661 6.401C35.1301 6.431 35.1121 6.479 35.1121 6.545V7.4C35.1121 7.466 35.1301 7.517 35.1661 7.553C35.2021 7.583 35.2591 7.598 35.3371 7.598H36.1831C36.6511 7.598 36.9721 7.697 37.1461 7.895C37.3261 8.093 37.4161 8.36 37.4161 8.696V9.884C37.4161 10.22 37.3171 10.49 37.1191 10.694C36.9211 10.898 36.5821 11 36.1021 11H34.8781C34.3981 11 34.0561 10.898 33.8521 10.694C33.6541 10.49 33.5551 10.22 33.5551 9.884V9.191H35.1301V9.677C35.1301 9.743 35.1481 9.794 35.1841 9.83C35.2201 9.86 35.2771 9.875 35.3551 9.875H35.6161C35.6941 9.875 35.7511 9.86 35.7871 9.83C35.8231 9.794 35.8411 9.743 35.8411 9.677ZM40.6417 5.762H42.2167V11H40.6417V5.762ZM43.3327 5.222V6.347L39.5347 6.347V5.222H43.3327ZM46.6145 7.589V8.714H44.9945V7.589H46.6145ZM43.7345 5.222H45.2825V11H43.7345V5.222ZM46.4165 5.222H47.9645V11H46.4165V5.222ZM48.6828 5.222H50.2578V11H48.6828V5.222ZM52.5067 6.455V9.767C52.5067 9.833 52.5247 9.884 52.5607 9.92C52.5967 9.95 52.6537 9.965 52.7317 9.965H52.9657V11H52.2547C51.7747 11 51.4327 10.898 51.2287 10.694C51.0307 10.49 50.9317 10.22 50.9317 9.884V6.338C50.9317 6.002 51.0307 5.732 51.2287 5.528C51.4327 5.324 51.7747 5.222 52.2547 5.222H52.9657V6.257H52.7317C52.6537 6.257 52.5967 6.275 52.5607 6.311C52.5247 6.341 52.5067 6.389 52.5067 6.455ZM53.2717 7.382V6.455C53.2717 6.389 53.2537 6.341 53.2177 6.311C53.1817 6.275 53.1247 6.257 53.0467 6.257H52.8127V5.222H53.5237C54.0037 5.222 54.3427 5.324 54.5407 5.528C54.7447 5.732 54.8467 6.002 54.8467 6.338V7.382H53.2717ZM53.2717 9.767V8.876H54.8467V9.884C54.8467 10.22 54.7447 10.49 54.5407 10.694C54.3427 10.898 54.0037 11 53.5237 11H52.8127V9.965H53.0467C53.1247 9.965 53.1817 9.95 53.2177 9.92C53.2537 9.884 53.2717 9.833 53.2717 9.767ZM57.0168 8.048H58.6548L59.7888 11H58.0968L57.0168 8.048ZM58.6548 8.048H57.0168L58.0878 5.222H59.7798L58.6548 8.048ZM55.4328 5.222H57.0078V11H55.4328V5.222ZM60.2052 5.222H61.7802V11H60.2052V5.222ZM63.4092 7.526V8.651H60.8802V7.526H63.4092ZM63.6702 5.222V6.347H60.7632V5.222H63.6702ZM63.7512 9.875V11H60.7632V9.875H63.7512ZM66.6692 7.679V6.545C66.6692 6.479 66.6512 6.431 66.6152 6.401C66.5792 6.365 66.5222 6.347 66.4442 6.347H64.7702V5.222H66.9212C67.4012 5.222 67.7402 5.324 67.9382 5.528C68.1422 5.732 68.2442 6.002 68.2442 6.338V7.832C68.2442 8.168 68.1422 8.438 67.9382 8.642C67.7402 8.846 67.4012 8.948 66.9212 8.948H64.7702V7.877H66.4442C66.5222 7.877 66.5792 7.862 66.6152 7.832C66.6512 7.796 66.6692 7.745 66.6692 7.679ZM64.2482 5.222H65.8232V11H64.2482V5.222ZM65.6432 8.318H67.1822L68.5322 11H66.8402L65.6432 8.318ZM71.465 5.762H73.04V11H71.465V5.762ZM74.156 5.222V6.347H70.358V5.222H74.156ZM77.4378 7.589V8.714H75.8178V7.589H77.4378ZM74.5578 5.222H76.1058V11H74.5578V5.222ZM77.2398 5.222H78.7878V11H77.2398V5.222ZM83.043 9.02V10.136H80.154V9.02H83.043ZM84.033 11H82.449L81.585 6.941L80.694 11H79.146L80.631 5.222H82.548L84.033 11ZM87.0297 5.222H88.4697V11H87.1197L85.8327 7.967V11H84.3927V5.222H85.7427L87.0297 8.309V5.222ZM93.6933 9.389H92.3343L90.6333 5.222H92.2443L93.0003 7.661L93.7023 5.222H95.3043L93.6933 9.389ZM92.2263 8.552H93.8013V11H92.2263V8.552ZM98.0363 7.634V6.545C98.0363 6.479 98.0183 6.431 97.9823 6.401C97.9463 6.365 97.8893 6.347 97.8113 6.347H97.5143V5.222H98.2883C98.7683 5.222 99.1073 5.324 99.3053 5.528C99.5093 5.732 99.6113 6.002 99.6113 6.338V7.634H98.0363ZM98.0363 9.677V7.517H99.6113V9.884C99.6113 10.22 99.5093 10.49 99.3053 10.694C99.1073 10.898 98.7683 11 98.2883 11H97.5143V9.875H97.8113C97.8893 9.875 97.9463 9.86 97.9823 9.83C98.0183 9.794 98.0363 9.743 98.0363 9.677ZM97.2083 6.545V7.634H95.6333V6.338C95.6333 6.002 95.7323 5.732 95.9303 5.528C96.1343 5.324 96.4763 5.222 96.9563 5.222H97.7303V6.347H97.4333C97.3553 6.347 97.2983 6.365 97.2623 6.401C97.2263 6.431 97.2083 6.479 97.2083 6.545ZM97.2083 7.517V9.677C97.2083 9.743 97.2263 9.794 97.2623 9.83C97.2983 9.86 97.3553 9.875 97.4333 9.875H97.7303V11H96.9563C96.4763 11 96.1343 10.898 95.9303 10.694C95.7323 10.49 95.6333 10.22 95.6333 9.884V7.517H97.2083ZM102.704 9.677V5.222H104.279V9.884C104.279 10.22 104.177 10.49 103.973 10.694C103.775 10.898 103.436 11 102.956 11H102.182V9.875H102.479C102.557 9.875 102.614 9.86 102.65 9.83C102.686 9.794 102.704 9.743 102.704 9.677ZM101.876 5.222V9.677C101.876 9.743 101.894 9.794 101.93 9.83C101.966 9.86 102.023 9.875 102.101 9.875H102.398V11H101.624C101.144 11 100.802 10.898 100.598 10.694C100.4 10.49 100.301 10.22 100.301 9.884V5.222H101.876ZM107.424 7.679V6.545C107.424 6.479 107.406 6.431 107.37 6.401C107.334 6.365 107.277 6.347 107.199 6.347L105.525 6.347V5.222H107.676C108.156 5.222 108.495 5.324 108.693 5.528C108.897 5.732 108.999 6.002 108.999 6.338V7.832C108.999 8.168 108.897 8.438 108.693 8.642C108.495 8.846 108.156 8.948 107.676 8.948L105.525 8.948V7.877L107.199 7.877C107.277 7.877 107.334 7.862 107.37 7.832C107.406 7.796 107.424 7.745 107.424 7.679ZM105.003 5.222H106.578V11H105.003V5.222ZM106.398 8.318H107.937L109.287 11H107.595L106.398 8.318ZM111.428 5.222H113.003V11H111.428V5.222ZM114.632 7.526V8.651H112.103V7.526H114.632ZM114.893 5.222V6.347H111.986V5.222H114.893ZM114.974 9.875V11H111.986V9.875H114.974ZM118.297 8.066L119.8 11H118.027L117.406 9.38L116.785 11H115.111L116.524 8.066L115.147 5.222H116.929L117.406 6.698L117.892 5.222H119.584L118.297 8.066Z" fill="black"/>
<g opacity="0.8">
<circle cx="128" cy="8.5" r="2" fill="black"/>
<circle cx="128" cy="8.5" r="1" fill="#FD0001"/>
</g>
<path opacity="0.8" d="M136.587 5.222H139.233C139.713 5.222 140.052 5.324 140.25 5.528C140.454 5.732 140.556 6.002 140.556 6.338V7.076C140.556 7.31 140.526 7.514 140.466 7.688C140.412 7.862 140.298 7.997 140.124 8.093C140.298 8.171 140.412 8.288 140.466 8.444C140.526 8.6 140.556 8.792 140.556 9.02V9.884C140.556 10.22 140.454 10.49 140.25 10.694C140.052 10.898 139.713 11 139.233 11H136.587V5.222ZM139.008 9.767V8.822C139.008 8.756 138.99 8.708 138.954 8.678C138.918 8.642 138.861 8.624 138.783 8.624H138.135V9.965H138.783C138.861 9.965 138.918 9.95 138.954 9.92C138.99 9.884 139.008 9.833 139.008 9.767ZM139.008 7.391V6.455C139.008 6.389 138.99 6.341 138.954 6.311C138.918 6.275 138.861 6.257 138.783 6.257H138.135V7.589H138.783C138.861 7.589 138.918 7.574 138.954 7.544C138.99 7.508 139.008 7.457 139.008 7.391ZM141.227 5.222H142.802V11H141.227V5.222ZM144.313 5.762H145.888V11H144.313V5.762ZM147.004 5.222V6.347H143.206V5.222H147.004ZM147.406 5.222H148.981V11H147.406V5.222ZM150.61 7.526V8.651H148.081V7.526H150.61ZM150.871 5.222V6.347H147.964V5.222H150.871ZM150.952 9.875V11H147.964V9.875H150.952ZM153.251 5.222H154.826V11H153.251V5.222ZM158.182 5.222H159.622V11H158.272L156.985 7.967V11H155.545V5.222H156.895L158.182 8.309V5.222ZM161.135 5.762H162.71V11H161.135V5.762ZM163.826 5.222V6.347H160.028V5.222H163.826ZM166.604 7.634V6.545C166.604 6.479 166.586 6.431 166.55 6.401C166.514 6.365 166.457 6.347 166.379 6.347H166.082V5.222H166.856C167.336 5.222 167.675 5.324 167.873 5.528C168.077 5.732 168.179 6.002 168.179 6.338V7.634L166.604 7.634ZM166.604 9.677V7.517L168.179 7.517V9.884C168.179 10.22 168.077 10.49 167.873 10.694C167.675 10.898 167.336 11 166.856 11H166.082V9.875H166.379C166.457 9.875 166.514 9.86 166.55 9.83C166.586 9.794 166.604 9.743 166.604 9.677ZM165.776 6.545V7.634H164.201V6.338C164.201 6.002 164.3 5.732 164.498 5.528C164.702 5.324 165.044 5.222 165.524 5.222H166.298V6.347H166.001C165.923 6.347 165.866 6.365 165.83 6.401C165.794 6.431 165.776 6.479 165.776 6.545ZM165.776 7.517V9.677C165.776 9.743 165.794 9.794 165.83 9.83C165.866 9.86 165.923 9.875 166.001 9.875H166.298V11H165.524C165.044 11 164.702 10.898 164.498 10.694C164.3 10.49 164.201 10.22 164.201 9.884V7.517H165.776ZM170.671 5.222H172.246V11H170.671V5.222ZM173.884 7.751V8.786H171.355V7.751H173.884ZM174.136 5.222V6.347H171.229V5.222H174.136ZM174.634 5.222H176.209V11H174.634V5.222ZM175.156 11V9.875H178V11H175.156ZM181.898 9.02V10.136H179.009V9.02H181.898ZM182.888 11H181.304L180.44 6.941L179.549 11H178.001L179.486 5.222H181.403L182.888 11ZM185.984 5.222H187.622L186.2 11H184.373L182.951 5.222L184.589 5.222L185.282 9.083L185.984 5.222ZM190.423 7.634V6.545C190.423 6.479 190.405 6.431 190.369 6.401C190.333 6.365 190.276 6.347 190.198 6.347H189.901V5.222H190.675C191.155 5.222 191.494 5.324 191.692 5.528C191.896 5.732 191.998 6.002 191.998 6.338V7.634H190.423ZM190.423 9.677V7.517H191.998V9.884C191.998 10.22 191.896 10.49 191.692 10.694C191.494 10.898 191.155 11 190.675 11H189.901V9.875H190.198C190.276 9.875 190.333 9.86 190.369 9.83C190.405 9.794 190.423 9.743 190.423 9.677ZM189.595 6.545V7.634H188.02V6.338C188.02 6.002 188.119 5.732 188.317 5.528C188.521 5.324 188.863 5.222 189.343 5.222H190.117V6.347H189.82C189.742 6.347 189.685 6.365 189.649 6.401C189.613 6.431 189.595 6.479 189.595 6.545ZM189.595 7.517V9.677C189.595 9.743 189.613 9.794 189.649 9.83C189.685 9.86 189.742 9.875 189.82 9.875H190.117V11H189.343C188.863 11 188.521 10.898 188.317 10.694C188.119 10.49 188.02 10.22 188.02 9.884V7.517H189.595ZM195.09 9.677V5.222H196.665V9.884C196.665 10.22 196.563 10.49 196.359 10.694C196.161 10.898 195.822 11 195.342 11H194.568V9.875H194.865C194.943 9.875 195 9.86 195.036 9.83C195.072 9.794 195.09 9.743 195.09 9.677ZM194.262 5.222V9.677C194.262 9.743 194.28 9.794 194.316 9.83C194.352 9.86 194.409 9.875 194.487 9.875H194.784V11H194.01C193.53 11 193.188 10.898 192.984 10.694C192.786 10.49 192.687 10.22 192.687 9.884V5.222H194.262ZM199.81 7.679V6.545C199.81 6.479 199.792 6.431 199.756 6.401C199.72 6.365 199.663 6.347 199.585 6.347H197.911V5.222H200.062C200.542 5.222 200.881 5.324 201.079 5.528C201.283 5.732 201.385 6.002 201.385 6.338V7.832C201.385 8.168 201.283 8.438 201.079 8.642C200.881 8.846 200.542 8.948 200.062 8.948H197.911V7.877H199.585C199.663 7.877 199.72 7.862 199.756 7.832C199.792 7.796 199.81 7.745 199.81 7.679ZM197.389 5.222H198.964V11H197.389V5.222ZM198.784 8.318H200.323L201.673 11L199.981 11L198.784 8.318ZM204.226 9.677V8.858C204.226 8.792 204.208 8.744 204.172 8.714C204.136 8.678 204.079 8.66 204.001 8.66H203.137C202.669 8.66 202.348 8.555 202.174 8.345C202.006 8.135 201.922 7.862 201.922 7.526V6.338C201.922 6.002 202.021 5.732 202.219 5.528C202.417 5.324 202.756 5.222 203.236 5.222H204.469C204.949 5.222 205.288 5.324 205.486 5.528C205.684 5.732 205.783 6.002 205.783 6.338V7.031H204.208V6.545C204.208 6.479 204.19 6.431 204.154 6.401C204.118 6.365 204.061 6.347 203.983 6.347H203.722C203.644 6.347 203.587 6.365 203.551 6.401C203.515 6.431 203.497 6.479 203.497 6.545V7.4C203.497 7.466 203.515 7.517 203.551 7.553C203.587 7.583 203.644 7.598 203.722 7.598H204.568C205.036 7.598 205.357 7.697 205.531 7.895C205.711 8.093 205.801 8.36 205.801 8.696V9.884C205.801 10.22 205.702 10.49 205.504 10.694C205.306 10.898 204.967 11 204.487 11H203.263C202.783 11 202.441 10.898 202.237 10.694C202.039 10.49 201.94 10.22 201.94 9.884V9.191H203.515V9.677C203.515 9.743 203.533 9.794 203.569 9.83C203.605 9.86 203.662 9.875 203.74 9.875H204.001C204.079 9.875 204.136 9.86 204.172 9.83C204.208 9.794 204.226 9.743 204.226 9.677ZM209.027 5.762H210.602V11H209.027V5.762ZM211.718 5.222V6.347H207.92V5.222H211.718ZM215 7.589V8.714H213.38V7.589H215ZM212.12 5.222H213.668V11H212.12V5.222ZM214.802 5.222L216.35 5.222V11H214.802V5.222ZM220.605 9.02V10.136H217.716V9.02H220.605ZM221.595 11H220.011L219.147 6.941L218.256 11H216.708L218.193 5.222H220.11L221.595 11ZM222.747 5.762H224.322V11H222.747V5.762ZM225.438 5.222V6.347H221.64V5.222H225.438ZM227.641 5.222H229.216V11H227.641V5.222ZM230.854 7.751V8.786H228.325V7.751H230.854ZM231.106 5.222V6.347H228.199V5.222H231.106ZM231.605 5.222H233.18V11H231.605V5.222ZM232.127 11V9.875H234.971V11H232.127ZM235.332 5.222H236.907V11H235.332V5.222ZM240.047 7.679V6.545C240.047 6.479 240.029 6.431 239.993 6.401C239.957 6.365 239.9 6.347 239.822 6.347H238.148V5.222H240.299C240.779 5.222 241.118 5.324 241.316 5.528C241.52 5.732 241.622 6.002 241.622 6.338V7.832C241.622 8.168 241.52 8.438 241.316 8.642C241.118 8.846 240.779 8.948 240.299 8.948H238.148V7.877H239.822C239.9 7.877 239.957 7.862 239.993 7.832C240.029 7.796 240.047 7.745 240.047 7.679ZM237.626 5.222H239.201V11H237.626V5.222ZM239.021 8.318H240.56L241.91 11H240.218L239.021 8.318ZM243.041 5.762H244.616V11H243.041V5.762ZM245.732 5.222V6.347H241.934V5.222H245.732Z" fill="black"/>
<g opacity="0.8">
<circle cx="254" cy="8.5" r="2" fill="black"/>
<circle cx="254" cy="8.5" r="1" fill="#FD0001"/>
</g>
<path opacity="0.8" d="M263.278 5.762H264.853V11H263.278V5.762ZM265.969 5.222V6.347H262.171V5.222H265.969ZM269.251 7.589V8.714H267.631V7.589H269.251ZM266.371 5.222H267.919V11H266.371V5.222ZM269.053 5.222H270.601V11H269.053V5.222ZM271.319 5.222H272.894V11H271.319V5.222ZM274.523 7.526V8.651H271.994V7.526H274.523ZM274.784 5.222V6.347H271.877V5.222H274.784ZM274.865 9.875V11H271.877V9.875H274.865ZM279.54 7.634V6.545C279.54 6.479 279.522 6.431 279.486 6.401C279.45 6.365 279.393 6.347 279.315 6.347H279.018V5.222H279.792C280.272 5.222 280.611 5.324 280.809 5.528C281.013 5.732 281.115 6.002 281.115 6.338V7.634H279.54ZM279.54 9.677V7.517H281.115V9.884C281.115 10.22 281.013 10.49 280.809 10.694C280.611 10.898 280.272 11 279.792 11H279.018V9.875H279.315C279.393 9.875 279.45 9.86 279.486 9.83C279.522 9.794 279.54 9.743 279.54 9.677ZM278.712 6.545V7.634H277.137V6.338C277.137 6.002 277.236 5.732 277.434 5.528C277.638 5.324 277.98 5.222 278.46 5.222H279.234V6.347H278.937C278.859 6.347 278.802 6.365 278.766 6.401C278.73 6.431 278.712 6.479 278.712 6.545ZM278.712 7.517V9.677C278.712 9.743 278.73 9.794 278.766 9.83C278.802 9.86 278.859 9.875 278.937 9.875H279.234V11H278.46C277.98 11 277.638 10.898 277.434 10.694C277.236 10.49 277.137 10.22 277.137 9.884V7.517H278.712ZM284.442 5.222H285.882V11H284.532L283.245 7.967V11H281.805V5.222H283.155L284.442 8.309V5.222ZM286.604 5.222H288.179V11H286.604V5.222ZM287.126 11V9.875H289.97V11H287.126ZM293.03 9.389H291.671L289.97 5.222H291.581L292.337 7.661L293.039 5.222H294.641L293.03 9.389ZM291.563 8.552H293.138V11H291.563V8.552ZM298.329 6.455V9.767C298.329 9.833 298.347 9.884 298.383 9.92C298.419 9.95 298.476 9.965 298.554 9.965H298.788V11H298.077C297.597 11 297.255 10.898 297.051 10.694C296.853 10.49 296.754 10.22 296.754 9.884V6.338C296.754 6.002 296.853 5.732 297.051 5.528C297.255 5.324 297.597 5.222 298.077 5.222H298.788V6.257H298.554C298.476 6.257 298.419 6.275 298.383 6.311C298.347 6.341 298.329 6.389 298.329 6.455ZM299.094 7.382V6.455C299.094 6.389 299.076 6.341 299.04 6.311C299.004 6.275 298.947 6.257 298.869 6.257H298.635V5.222H299.346C299.826 5.222 300.165 5.324 300.363 5.528C300.567 5.732 300.669 6.002 300.669 6.338V7.382H299.094ZM299.094 9.767V8.876H300.669V9.884C300.669 10.22 300.567 10.49 300.363 10.694C300.165 10.898 299.826 11 299.346 11H298.635V9.965H298.869C298.947 9.965 299.004 9.95 299.04 9.92C299.076 9.884 299.094 9.833 299.094 9.767ZM304.135 7.589V8.714H302.515V7.589H304.135ZM301.255 5.222H302.803V11H301.255V5.222ZM303.937 5.222H305.485V11H303.937V5.222ZM306.203 5.222H307.778V11H306.203V5.222ZM309.407 7.526V8.651H306.878V7.526H309.407ZM309.668 5.222V6.347H306.761V5.222H309.668ZM309.749 9.875V11H306.761V9.875H309.749ZM313.783 9.02V10.136H310.894V9.02H313.783ZM314.773 11H313.189L312.325 6.941L311.434 11H309.886L311.371 5.222H313.288L314.773 11ZM315.925 5.762H317.5V11H315.925V5.762ZM318.616 5.222V6.347H314.818V5.222H318.616ZM319.018 5.222H320.593V11H319.018V5.222ZM323.949 5.222H325.389V11H324.039L322.752 7.967V11H321.312V5.222H322.662L323.949 8.309V5.222ZM327.64 6.455V9.767C327.64 9.833 327.658 9.884 327.694 9.92C327.73 9.95 327.787 9.965 327.865 9.965H328.072V11H327.388C326.908 11 326.566 10.898 326.362 10.694C326.164 10.49 326.065 10.22 326.065 9.884V6.338C326.065 6.002 326.164 5.732 326.362 5.528C326.566 5.324 326.908 5.222 327.388 5.222H328.108V6.257H327.865C327.787 6.257 327.73 6.275 327.694 6.311C327.658 6.341 327.64 6.389 327.64 6.455ZM329.989 7.805V8.804H327.964V7.805H329.989ZM328.414 7.202V6.455C328.414 6.389 328.396 6.341 328.36 6.311C328.324 6.275 328.267 6.257 328.189 6.257H327.946V5.222H328.666C329.146 5.222 329.485 5.324 329.683 5.528C329.887 5.732 329.989 6.002 329.989 6.338V7.202H328.414ZM328.414 9.767V8.498H329.989V9.884C329.989 10.22 329.887 10.49 329.683 10.694C329.485 10.898 329.146 11 328.666 11H327.982V9.965H328.189C328.267 9.965 328.324 9.95 328.36 9.92C328.396 9.884 328.414 9.833 328.414 9.767ZM335.121 9.389H333.762L332.061 5.222H333.672L334.428 7.661L335.13 5.222H336.732L335.121 9.389ZM333.654 8.552H335.229V11H333.654V8.552ZM339.464 7.634V6.545C339.464 6.479 339.446 6.431 339.41 6.401C339.374 6.365 339.317 6.347 339.239 6.347H338.942V5.222H339.716C340.196 5.222 340.535 5.324 340.733 5.528C340.937 5.732 341.039 6.002 341.039 6.338V7.634H339.464ZM339.464 9.677V7.517H341.039V9.884C341.039 10.22 340.937 10.49 340.733 10.694C340.535 10.898 340.196 11 339.716 11H338.942V9.875H339.239C339.317 9.875 339.374 9.86 339.41 9.83C339.446 9.794 339.464 9.743 339.464 9.677ZM338.636 6.545V7.634H337.061V6.338C337.061 6.002 337.16 5.732 337.358 5.528C337.562 5.324 337.904 5.222 338.384 5.222H339.158V6.347H338.861C338.783 6.347 338.726 6.365 338.69 6.401C338.654 6.431 338.636 6.479 338.636 6.545ZM338.636 7.517V9.677C338.636 9.743 338.654 9.794 338.69 9.83C338.726 9.86 338.783 9.875 338.861 9.875H339.158V11H338.384C337.904 11 337.562 10.898 337.358 10.694C337.16 10.49 337.061 10.22 337.061 9.884V7.517H338.636ZM344.132 9.677V5.222H345.707V9.884C345.707 10.22 345.605 10.49 345.401 10.694C345.203 10.898 344.864 11 344.384 11H343.61V9.875H343.907C343.985 9.875 344.042 9.86 344.078 9.83C344.114 9.794 344.132 9.743 344.132 9.677ZM343.304 5.222V9.677C343.304 9.743 343.322 9.794 343.358 9.83C343.394 9.86 343.451 9.875 343.529 9.875H343.826V11H343.052C342.572 11 342.23 10.898 342.026 10.694C341.828 10.49 341.729 10.22 341.729 9.884V5.222L343.304 5.222ZM346.431 5.222H347.997V6.032L346.854 8.039H346.431V5.222ZM348.716 5.222H350.291V11H348.716V5.222ZM349.238 11V9.875H352.082V11H349.238ZM352.443 5.222H354.018V11H352.443V5.222ZM352.965 11V9.875H355.809V11H352.965ZM357.971 5.222H359.546V11H357.971V5.222ZM361.175 7.526V8.651H358.646V7.526H361.175ZM361.436 5.222V6.347H358.529V5.222H361.436ZM361.517 9.875V11H358.529V9.875H361.517ZM364.651 5.222H366.091V11H364.741L363.454 7.967V11H362.014V5.222H363.364L364.651 8.309V5.222ZM366.543 8.687H368.118V9.677C368.118 9.743 368.136 9.794 368.172 9.83C368.208 9.86 368.265 9.875 368.343 9.875H368.442C368.52 9.875 368.577 9.86 368.613 9.83C368.649 9.794 368.667 9.743 368.667 9.677V5.222H370.242V9.884C370.242 10.22 370.14 10.49 369.936 10.694C369.738 10.898 369.399 11 368.919 11H367.866C367.386 11 367.044 10.898 366.84 10.694C366.642 10.49 366.543 10.22 366.543 9.884V8.687ZM373.302 7.634V6.545C373.302 6.479 373.284 6.431 373.248 6.401C373.212 6.365 373.155 6.347 373.077 6.347H372.78V5.222H373.554C374.034 5.222 374.373 5.324 374.571 5.528C374.775 5.732 374.877 6.002 374.877 6.338V7.634H373.302ZM373.302 9.677V7.517H374.877V9.884C374.877 10.22 374.775 10.49 374.571 10.694C374.373 10.898 374.034 11 373.554 11H372.78V9.875H373.077C373.155 9.875 373.212 9.86 373.248 9.83C373.284 9.794 373.302 9.743 373.302 9.677ZM372.474 6.545V7.634H370.899V6.338C370.899 6.002 370.998 5.732 371.196 5.528C371.4 5.324 371.742 5.222 372.222 5.222H372.996V6.347H372.699C372.621 6.347 372.564 6.365 372.528 6.401C372.492 6.431 372.474 6.479 372.474 6.545ZM372.474 7.517V9.677C372.474 9.743 372.492 9.794 372.528 9.83C372.564 9.86 372.621 9.875 372.699 9.875H372.996V11H372.222C371.742 11 371.4 10.898 371.196 10.694C370.998 10.49 370.899 10.22 370.899 9.884V7.517H372.474ZM378.267 9.389H376.908L375.207 5.222H376.818L377.574 7.661L378.276 5.222H379.878L378.267 9.389ZM376.8 8.552H378.375V11H376.8V8.552Z" fill="black"/>
<g opacity="0.8">
<circle cx="388" cy="8.5" r="2" fill="black"/>
<circle cx="388" cy="8.5" r="1" fill="#FD0001"/>
</g>
<path opacity="0.8" d="M396.576 5.222H398.151V11H396.576V5.222ZM399.789 7.751V8.786H397.26V7.751H399.789ZM400.041 5.222V6.347H397.134V5.222H400.041ZM400.54 5.222H402.115V11H400.54V5.222ZM401.062 11V9.875H403.906V11H401.062ZM407.803 9.02V10.136H404.914V9.02H407.803ZM408.793 11H407.209L406.345 6.941L405.454 11H403.906L405.391 5.222H407.308L408.793 11ZM411.889 5.222H413.527L412.105 11H410.278L408.856 5.222H410.494L411.187 9.083L411.889 5.222ZM416.328 7.634V6.545C416.328 6.479 416.31 6.431 416.274 6.401C416.238 6.365 416.181 6.347 416.103 6.347H415.806V5.222H416.58C417.06 5.222 417.399 5.324 417.597 5.528C417.801 5.732 417.903 6.002 417.903 6.338V7.634H416.328ZM416.328 9.677V7.517H417.903V9.884C417.903 10.22 417.801 10.49 417.597 10.694C417.399 10.898 417.06 11 416.58 11H415.806V9.875H416.103C416.181 9.875 416.238 9.86 416.274 9.83C416.31 9.794 416.328 9.743 416.328 9.677ZM415.5 6.545V7.634H413.925V6.338C413.925 6.002 414.024 5.732 414.222 5.528C414.426 5.324 414.768 5.222 415.248 5.222H416.022V6.347H415.725C415.647 6.347 415.59 6.365 415.554 6.401C415.518 6.431 415.5 6.479 415.5 6.545ZM415.5 7.517V9.677C415.5 9.743 415.518 9.794 415.554 9.83C415.59 9.86 415.647 9.875 415.725 9.875H416.022V11H415.248C414.768 11 414.426 10.898 414.222 10.694C414.024 10.49 413.925 10.22 413.925 9.884V7.517H415.5ZM420.995 9.677V5.222H422.57V9.884C422.57 10.22 422.468 10.49 422.264 10.694C422.066 10.898 421.727 11 421.247 11H420.473V9.875H420.77C420.848 9.875 420.905 9.86 420.941 9.83C420.977 9.794 420.995 9.743 420.995 9.677ZM420.167 5.222V9.677C420.167 9.743 420.185 9.794 420.221 9.83C420.257 9.86 420.314 9.875 420.392 9.875H420.689V11H419.915C419.435 11 419.093 10.898 418.889 10.694C418.691 10.49 418.592 10.22 418.592 9.884V5.222H420.167ZM425.716 7.679V6.545C425.716 6.479 425.698 6.431 425.662 6.401C425.626 6.365 425.569 6.347 425.491 6.347H423.817V5.222H425.968C426.448 5.222 426.787 5.324 426.985 5.528C427.189 5.732 427.291 6.002 427.291 6.338V7.832C427.291 8.168 427.189 8.438 426.985 8.642C426.787 8.846 426.448 8.948 425.968 8.948H423.817V7.877H425.491C425.569 7.877 425.626 7.862 425.662 7.832C425.698 7.796 425.716 7.745 425.716 7.679ZM423.295 5.222H424.87V11H423.295V5.222ZM424.69 8.318H426.229L427.579 11H425.887L424.69 8.318ZM430.132 9.677V8.858C430.132 8.792 430.114 8.744 430.078 8.714C430.042 8.678 429.985 8.66 429.907 8.66H429.043C428.575 8.66 428.254 8.555 428.08 8.345C427.912 8.135 427.828 7.862 427.828 7.526V6.338C427.828 6.002 427.927 5.732 428.125 5.528C428.323 5.324 428.662 5.222 429.142 5.222H430.375C430.855 5.222 431.194 5.324 431.392 5.528C431.59 5.732 431.689 6.002 431.689 6.338V7.031H430.114V6.545C430.114 6.479 430.096 6.431 430.06 6.401C430.024 6.365 429.967 6.347 429.889 6.347H429.628C429.55 6.347 429.493 6.365 429.457 6.401C429.421 6.431 429.403 6.479 429.403 6.545V7.4C429.403 7.466 429.421 7.517 429.457 7.553C429.493 7.583 429.55 7.598 429.628 7.598H430.474C430.942 7.598 431.263 7.697 431.437 7.895C431.617 8.093 431.707 8.36 431.707 8.696V9.884C431.707 10.22 431.608 10.49 431.41 10.694C431.212 10.898 430.873 11 430.393 11H429.169C428.689 11 428.347 10.898 428.143 10.694C427.945 10.49 427.846 10.22 427.846 9.884V9.191H429.421V9.677C429.421 9.743 429.439 9.794 429.475 9.83C429.511 9.86 429.568 9.875 429.646 9.875H429.907C429.985 9.875 430.042 9.86 430.078 9.83C430.114 9.794 430.132 9.743 430.132 9.677ZM436.354 9.677V8.858C436.354 8.792 436.336 8.744 436.3 8.714C436.264 8.678 436.207 8.66 436.129 8.66H435.265C434.797 8.66 434.476 8.555 434.302 8.345C434.134 8.135 434.05 7.862 434.05 7.526V6.338C434.05 6.002 434.149 5.732 434.347 5.528C434.545 5.324 434.884 5.222 435.364 5.222H436.597C437.077 5.222 437.416 5.324 437.614 5.528C437.812 5.732 437.911 6.002 437.911 6.338V7.031H436.336V6.545C436.336 6.479 436.318 6.431 436.282 6.401C436.246 6.365 436.189 6.347 436.111 6.347H435.85C435.772 6.347 435.715 6.365 435.679 6.401C435.643 6.431 435.625 6.479 435.625 6.545V7.4C435.625 7.466 435.643 7.517 435.679 7.553C435.715 7.583 435.772 7.598 435.85 7.598H436.696C437.164 7.598 437.485 7.697 437.659 7.895C437.839 8.093 437.929 8.36 437.929 8.696V9.884C437.929 10.22 437.83 10.49 437.632 10.694C437.434 10.898 437.095 11 436.615 11H435.391C434.911 11 434.569 10.898 434.365 10.694C434.167 10.49 434.068 10.22 434.068 9.884V9.191H435.643V9.677C435.643 9.743 435.661 9.794 435.697 9.83C435.733 9.86 435.79 9.875 435.868 9.875H436.129C436.207 9.875 436.264 9.86 436.3 9.83C436.336 9.794 436.354 9.743 436.354 9.677ZM438.561 5.222H440.136V11H438.561V5.222ZM441.765 7.526V8.651H439.236V7.526H441.765ZM442.026 5.222V6.347H439.119V5.222H442.026ZM442.107 9.875V11H439.119V9.875H442.107ZM445.097 7.634V6.455C445.097 6.389 445.079 6.341 445.043 6.311C445.007 6.275 444.95 6.257 444.872 6.257H443.216V5.222L445.349 5.222C445.829 5.222 446.168 5.324 446.366 5.528C446.57 5.732 446.672 6.002 446.672 6.338V7.634H445.097ZM445.097 9.767V7.517H446.672V9.884C446.672 10.22 446.57 10.49 446.366 10.694C446.168 10.898 445.829 11 445.349 11H443.216V9.965H444.872C444.95 9.965 445.007 9.95 445.043 9.92C445.079 9.884 445.097 9.833 445.097 9.767ZM442.694 5.222L444.269 5.222V11H442.694V5.222ZM449.771 9.677V5.222H451.346V9.884C451.346 10.22 451.244 10.49 451.04 10.694C450.842 10.898 450.503 11 450.023 11H449.249V9.875H449.546C449.624 9.875 449.681 9.86 449.717 9.83C449.753 9.794 449.771 9.743 449.771 9.677ZM448.943 5.222V9.677C448.943 9.743 448.961 9.794 448.997 9.83C449.033 9.86 449.09 9.875 449.168 9.875H449.465V11H448.691C448.211 11 447.869 10.898 447.665 10.694C447.467 10.49 447.368 10.22 447.368 9.884V5.222H448.943ZM453.6 6.455V9.767C453.6 9.833 453.618 9.884 453.654 9.92C453.69 9.95 453.747 9.965 453.825 9.965H454.059V11H453.348C452.868 11 452.526 10.898 452.322 10.694C452.124 10.49 452.025 10.22 452.025 9.884V6.338C452.025 6.002 452.124 5.732 452.322 5.528C452.526 5.324 452.868 5.222 453.348 5.222H454.059V6.257H453.825C453.747 6.257 453.69 6.275 453.654 6.311C453.618 6.341 453.6 6.389 453.6 6.455ZM454.365 7.382V6.455C454.365 6.389 454.347 6.341 454.311 6.311C454.275 6.275 454.218 6.257 454.14 6.257H453.906V5.222H454.617C455.097 5.222 455.436 5.324 455.634 5.528C455.838 5.732 455.94 6.002 455.94 6.338V7.382H454.365ZM454.365 9.767V8.876H455.94V9.884C455.94 10.22 455.838 10.49 455.634 10.694C455.436 10.898 455.097 11 454.617 11H453.906V9.965H454.14C454.218 9.965 454.275 9.95 454.311 9.92C454.347 9.884 454.365 9.833 454.365 9.767ZM457.318 5.762H458.893V11H457.318V5.762ZM460.009 5.222V6.347H456.211V5.222H460.009ZM460.411 5.222H461.986V11H460.411V5.222ZM465.081 7.634V6.545C465.081 6.479 465.063 6.431 465.027 6.401C464.991 6.365 464.934 6.347 464.856 6.347H464.559V5.222H465.333C465.813 5.222 466.152 5.324 466.35 5.528C466.554 5.732 466.656 6.002 466.656 6.338V7.634H465.081ZM465.081 9.677V7.517H466.656V9.884C466.656 10.22 466.554 10.49 466.35 10.694C466.152 10.898 465.813 11 465.333 11H464.559V9.875H464.856C464.934 9.875 464.991 9.86 465.027 9.83C465.063 9.794 465.081 9.743 465.081 9.677ZM464.253 6.545V7.634H462.678V6.338C462.678 6.002 462.777 5.732 462.975 5.528C463.179 5.324 463.521 5.222 464.001 5.222H464.775V6.347H464.478C464.4 6.347 464.343 6.365 464.307 6.401C464.271 6.431 464.253 6.479 464.253 6.545ZM464.253 7.517V9.677C464.253 9.743 464.271 9.794 464.307 9.83C464.343 9.86 464.4 9.875 464.478 9.875H464.775V11H464.001C463.521 11 463.179 10.898 462.975 10.694C462.777 10.49 462.678 10.22 462.678 9.884V7.517H464.253ZM469.982 5.222H471.422V11H470.072L468.785 7.967V11H467.345V5.222H468.695L469.982 8.309V5.222Z" fill="black"/>
<g opacity="0.8">
<circle cx="480" cy="8.5" r="2" fill="black"/>
<circle cx="480" cy="8.5" r="1" fill="#FD0001"/>
</g>
<path opacity="0.8" d="M488.759 5.222H490.334V11H488.759V5.222ZM491.972 7.751V8.786H489.443V7.751H491.972ZM492.224 5.222V6.347H489.317V5.222H492.224ZM495.144 7.679V6.545C495.144 6.479 495.126 6.431 495.09 6.401C495.054 6.365 494.997 6.347 494.919 6.347H493.245V5.222H495.396C495.876 5.222 496.215 5.324 496.413 5.528C496.617 5.732 496.719 6.002 496.719 6.338V7.832C496.719 8.168 496.617 8.438 496.413 8.642C496.215 8.846 495.876 8.948 495.396 8.948H493.245V7.877H494.919C494.997 7.877 495.054 7.862 495.09 7.832C495.126 7.796 495.144 7.745 495.144 7.679ZM492.723 5.222H494.298V11H492.723V5.222ZM494.118 8.318H495.657L497.007 11H495.315L494.118 8.318ZM497.346 5.222H498.921V11H497.346V5.222ZM499.64 5.222H501.215V11H499.64V5.222ZM502.844 7.526V8.651H500.315V7.526H502.844ZM503.105 5.222V6.347H500.198V5.222H503.105ZM503.186 9.875V11H500.198V9.875H503.186ZM505.897 9.677V8.858C505.897 8.792 505.879 8.744 505.843 8.714C505.807 8.678 505.75 8.66 505.672 8.66H504.808C504.34 8.66 504.019 8.555 503.845 8.345C503.677 8.135 503.593 7.862 503.593 7.526V6.338C503.593 6.002 503.692 5.732 503.89 5.528C504.088 5.324 504.427 5.222 504.907 5.222H506.14C506.62 5.222 506.959 5.324 507.157 5.528C507.355 5.732 507.454 6.002 507.454 6.338V7.031H505.879V6.545C505.879 6.479 505.861 6.431 505.825 6.401C505.789 6.365 505.732 6.347 505.654 6.347H505.393C505.315 6.347 505.258 6.365 505.222 6.401C505.186 6.431 505.168 6.479 505.168 6.545V7.4C505.168 7.466 505.186 7.517 505.222 7.553C505.258 7.583 505.315 7.598 505.393 7.598H506.239C506.707 7.598 507.028 7.697 507.202 7.895C507.382 8.093 507.472 8.36 507.472 8.696V9.884C507.472 10.22 507.373 10.49 507.175 10.694C506.977 10.898 506.638 11 506.158 11H504.934C504.454 11 504.112 10.898 503.908 10.694C503.71 10.49 503.611 10.22 503.611 9.884V9.191H505.186V9.677C505.186 9.743 505.204 9.794 505.24 9.83C505.276 9.86 505.333 9.875 505.411 9.875H505.672C505.75 9.875 505.807 9.86 505.843 9.83C505.879 9.794 505.897 9.743 505.897 9.677ZM509.906 5.222H512.552C513.032 5.222 513.371 5.324 513.569 5.528C513.773 5.732 513.875 6.002 513.875 6.338V7.076C513.875 7.31 513.845 7.514 513.785 7.688C513.731 7.862 513.617 7.997 513.443 8.093C513.617 8.171 513.731 8.288 513.785 8.444C513.845 8.6 513.875 8.792 513.875 9.02V9.884C513.875 10.22 513.773 10.49 513.569 10.694C513.371 10.898 513.032 11 512.552 11H509.906V5.222ZM512.327 9.767V8.822C512.327 8.756 512.309 8.708 512.273 8.678C512.237 8.642 512.18 8.624 512.102 8.624H511.454V9.965H512.102C512.18 9.965 512.237 9.95 512.273 9.92C512.309 9.884 512.327 9.833 512.327 9.767ZM512.327 7.391V6.455C512.327 6.389 512.309 6.341 512.273 6.311C512.237 6.275 512.18 6.257 512.102 6.257H511.454V7.589H512.102C512.18 7.589 512.237 7.574 512.273 7.544C512.309 7.508 512.327 7.457 512.327 7.391ZM514.547 5.222H516.122V11H514.547V5.222ZM517.751 7.526V8.651H515.222V7.526H517.751ZM518.012 5.222V6.347H515.105V5.222H518.012ZM518.093 9.875V11H515.105V9.875H518.093ZM518.589 5.222H520.164V11H518.589V5.222ZM521.802 7.751V8.786H519.273V7.751L521.802 7.751ZM522.054 5.222V6.347L519.147 6.347V5.222H522.054ZM524.929 7.634V6.545C524.929 6.479 524.911 6.431 524.875 6.401C524.839 6.365 524.782 6.347 524.704 6.347H524.407V5.222H525.181C525.661 5.222 526 5.324 526.198 5.528C526.402 5.732 526.504 6.002 526.504 6.338V7.634H524.929ZM524.929 9.677V7.517H526.504V9.884C526.504 10.22 526.402 10.49 526.198 10.694C526 10.898 525.661 11 525.181 11H524.407V9.875H524.704C524.782 9.875 524.839 9.86 524.875 9.83C524.911 9.794 524.929 9.743 524.929 9.677ZM524.101 6.545V7.634H522.526V6.338C522.526 6.002 522.625 5.732 522.823 5.528C523.027 5.324 523.369 5.222 523.849 5.222H524.623V6.347H524.326C524.248 6.347 524.191 6.365 524.155 6.401C524.119 6.431 524.101 6.479 524.101 6.545ZM524.101 7.517V9.677C524.101 9.743 524.119 9.794 524.155 9.83C524.191 9.86 524.248 9.875 524.326 9.875H524.623V11H523.849C523.369 11 523.027 10.898 522.823 10.694C522.625 10.49 522.526 10.22 522.526 9.884V7.517H524.101ZM529.615 7.679V6.545C529.615 6.479 529.597 6.431 529.561 6.401C529.525 6.365 529.468 6.347 529.39 6.347H527.716V5.222H529.867C530.347 5.222 530.686 5.324 530.884 5.528C531.088 5.732 531.19 6.002 531.19 6.338V7.832C531.19 8.168 531.088 8.438 530.884 8.642C530.686 8.846 530.347 8.948 529.867 8.948H527.716V7.877H529.39C529.468 7.877 529.525 7.862 529.561 7.832C529.597 7.796 529.615 7.745 529.615 7.679ZM527.194 5.222H528.769V11H527.194V5.222ZM528.589 8.318H530.128L531.478 11H529.786L528.589 8.318ZM531.817 5.222H533.392V11H531.817V5.222ZM535.021 7.526V8.651H532.492V7.526H535.021ZM535.282 5.222V6.347H532.375V5.222H535.282ZM535.363 9.875V11H532.375V9.875H535.363ZM539.192 6.455V9.767C539.192 9.833 539.21 9.884 539.246 9.92C539.282 9.95 539.339 9.965 539.417 9.965H539.624V11H538.94C538.46 11 538.118 10.898 537.914 10.694C537.716 10.49 537.617 10.22 537.617 9.884V6.338C537.617 6.002 537.716 5.732 537.914 5.528C538.118 5.324 538.46 5.222 538.94 5.222H539.66V6.257H539.417C539.339 6.257 539.282 6.275 539.246 6.311C539.21 6.341 539.192 6.389 539.192 6.455ZM541.541 7.805V8.804H539.516V7.805H541.541ZM539.966 7.202V6.455C539.966 6.389 539.948 6.341 539.912 6.311C539.876 6.275 539.819 6.257 539.741 6.257H539.498V5.222H540.218C540.698 5.222 541.037 5.324 541.235 5.528C541.439 5.732 541.541 6.002 541.541 6.338V7.202H539.966ZM539.966 9.767V8.498H541.541V9.884C541.541 10.22 541.439 10.49 541.235 10.694C541.037 10.898 540.698 11 540.218 11H539.534V9.965H539.741C539.819 9.965 539.876 9.95 539.912 9.92C539.948 9.884 539.966 9.833 539.966 9.767ZM544.574 9.677V5.222H546.149V9.884C546.149 10.22 546.047 10.49 545.843 10.694C545.645 10.898 545.306 11 544.826 11H544.052V9.875H544.349C544.427 9.875 544.484 9.86 544.52 9.83C544.556 9.794 544.574 9.743 544.574 9.677ZM543.746 5.222V9.677C543.746 9.743 543.764 9.794 543.8 9.83C543.836 9.86 543.893 9.875 543.971 9.875H544.268V11H543.494C543.014 11 542.672 10.898 542.468 10.694C542.27 10.49 542.171 10.22 542.171 9.884V5.222H543.746ZM549.573 9.389H548.214L546.513 5.222H548.124L548.88 7.661L549.582 5.222H551.184L549.573 9.389ZM548.106 8.552H549.681V11H548.106V8.552ZM553.754 9.677V8.858C553.754 8.792 553.736 8.744 553.7 8.714C553.664 8.678 553.607 8.66 553.529 8.66H552.665C552.197 8.66 551.876 8.555 551.702 8.345C551.534 8.135 551.45 7.862 551.45 7.526V6.338C551.45 6.002 551.549 5.732 551.747 5.528C551.945 5.324 552.284 5.222 552.764 5.222H553.997C554.477 5.222 554.816 5.324 555.014 5.528C555.212 5.732 555.311 6.002 555.311 6.338V7.031H553.736V6.545C553.736 6.479 553.718 6.431 553.682 6.401C553.646 6.365 553.589 6.347 553.511 6.347H553.25C553.172 6.347 553.115 6.365 553.079 6.401C553.043 6.431 553.025 6.479 553.025 6.545V7.4C553.025 7.466 553.043 7.517 553.079 7.553C553.115 7.583 553.172 7.598 553.25 7.598H554.096C554.564 7.598 554.885 7.697 555.059 7.895C555.239 8.093 555.329 8.36 555.329 8.696V9.884C555.329 10.22 555.23 10.49 555.032 10.694C554.834 10.898 554.495 11 554.015 11H552.791C552.311 11 551.969 10.898 551.765 10.694C551.567 10.49 551.468 10.22 551.468 9.884V9.191H553.043V9.677C553.043 9.743 553.061 9.794 553.097 9.83C553.133 9.86 553.19 9.875 553.268 9.875H553.529C553.607 9.875 553.664 9.86 553.7 9.83C553.736 9.794 553.754 9.743 553.754 9.677Z" fill="black"/>
</svg>
