<svg width="410" height="50" viewBox="0 0 410 50" fill="none" xmlns="http://www.w3.org/2000/svg">
<mask id="path-1-inside-1_244_602" fill="white">
<path d="M0 0H410V50H0V0Z"/>
</mask>
<path d="M0 0H410V50H0V0Z" fill="#970F2C"/>
<path d="M0 1.92H410V-1.92H0V1.92ZM410 48.08H0V51.92H410V48.08Z" fill="black" mask="url(#path-1-inside-1_244_602)"/>
<path d="M122.012 19.04V32.33C122.012 32.71 122.072 32.96 122.192 33.08C122.312 33.2 122.562 33.26 122.942 33.26H123.812V35.03H122.312C121.512 35.03 120.912 34.84 120.512 34.46C120.132 34.06 119.942 33.46 119.942 32.66V18.71C119.942 17.91 120.132 17.32 120.512 16.94C120.912 16.54 121.512 16.34 122.312 16.34H124.022V18.11H122.942C122.562 18.11 122.312 18.17 122.192 18.29C122.072 18.39 122.012 18.64 122.012 19.04ZM125.522 21.86V19.04C125.522 18.64 125.462 18.39 125.342 18.29C125.242 18.17 124.992 18.11 124.592 18.11H123.572V16.34H125.222C126.022 16.34 126.612 16.54 126.992 16.94C127.392 17.32 127.592 17.91 127.592 18.71V21.86H125.522ZM125.522 32.33V29.51H127.592V32.66C127.592 33.46 127.392 34.06 126.992 34.46C126.612 34.84 126.022 35.03 125.222 35.03H123.572V33.26H124.592C124.992 33.26 125.242 33.2 125.342 33.08C125.462 32.96 125.522 32.71 125.522 32.33ZM136.494 28.49V30.26H131.274V28.49H136.494ZM138.624 35H136.554L133.764 17.78L131.304 35H129.234L132.144 16.34H135.414L138.624 35ZM140.717 16.34H142.757V35H140.717V16.34ZM141.947 35V33.23H147.047V35H141.947ZM148.862 16.34H150.902V35H148.862V16.34ZM150.092 35V33.23H155.192V35H150.092ZM160.723 24.74C160.723 20.46 161.213 17.15 162.193 14.81C163.193 12.45 164.763 11.27 166.903 11.27H167.383V12.98L166.963 13.01C165.863 13.09 165.003 13.65 164.383 14.69C163.763 15.71 163.333 17.09 163.093 18.83C162.853 20.57 162.733 22.53 162.733 24.71V26.9C162.733 29.08 162.853 31.04 163.093 32.78C163.333 34.5 163.763 35.88 164.383 36.92C165.003 37.96 165.863 38.52 166.963 38.6L167.383 38.63V40.34H166.903C164.763 40.34 163.193 39.16 162.193 36.8C161.213 34.46 160.723 31.15 160.723 26.87V24.74ZM167.356 26.57V24.77H177.256V26.57H167.356ZM171.256 20.27H173.356V31.07H171.256V20.27ZM181.273 19.04V24.53C181.273 24.91 181.333 25.16 181.453 25.28C181.573 25.4 181.823 25.46 182.203 25.46H185.593V27.23H181.573C180.773 27.23 180.173 27.04 179.773 26.66C179.393 26.26 179.203 25.66 179.203 24.86V18.71C179.203 17.91 179.393 17.32 179.773 16.94C180.173 16.54 180.773 16.34 181.573 16.34H183.193V18.11H182.203C181.823 18.11 181.573 18.17 181.453 18.29C181.333 18.39 181.273 18.64 181.273 19.04ZM184.843 32.3V19.04C184.843 18.64 184.783 18.39 184.663 18.29C184.563 18.17 184.313 18.11 183.913 18.11H182.923V16.34H184.543C185.343 16.34 185.933 16.54 186.313 16.94C186.713 17.32 186.913 17.91 186.913 18.71V32.63C186.913 33.43 186.713 34.03 186.313 34.43C185.933 34.81 185.343 35 184.543 35H182.953V33.23H183.913C184.313 33.23 184.563 33.17 184.663 33.05C184.783 32.93 184.843 32.68 184.843 32.3ZM181.273 29.12V32.3C181.273 32.68 181.333 32.93 181.453 33.05C181.573 33.17 181.823 33.23 182.203 33.23H183.283V35H181.603C180.803 35 180.203 34.81 179.803 34.43C179.423 34.03 179.233 33.43 179.233 32.63V29.12H181.273ZM191.853 16.34V18.11H189.003V16.34H191.853ZM191.043 16.34H193.083V35H191.043V16.34ZM200.521 26.87C200.521 31.15 200.021 34.46 199.021 36.8C198.041 39.16 196.481 40.34 194.341 40.34H193.861V38.63L194.281 38.6C195.401 38.52 196.261 37.96 196.861 36.92C197.481 35.88 197.911 34.5 198.151 32.78C198.391 31.04 198.511 29.08 198.511 26.9V24.71C198.511 22.53 198.391 20.57 198.151 18.83C197.911 17.09 197.481 15.71 196.861 14.69C196.261 13.65 195.401 13.09 194.281 13.01L193.861 12.98V11.27H194.341C196.481 11.27 198.041 12.45 199.021 14.81C200.021 17.15 200.521 20.46 200.521 24.74V26.87ZM209.251 19.04V24.53C209.251 24.91 209.311 25.16 209.431 25.28C209.551 25.4 209.801 25.46 210.181 25.46H213.571V27.23H209.551C208.751 27.23 208.151 27.04 207.751 26.66C207.371 26.26 207.181 25.66 207.181 24.86V18.71C207.181 17.91 207.371 17.32 207.751 16.94C208.151 16.54 208.751 16.34 209.551 16.34H211.171V18.11H210.181C209.801 18.11 209.551 18.17 209.431 18.29C209.311 18.39 209.251 18.64 209.251 19.04ZM212.821 32.3V19.04C212.821 18.64 212.761 18.39 212.641 18.29C212.541 18.17 212.291 18.11 211.891 18.11H210.901V16.34H212.521C213.321 16.34 213.911 16.54 214.291 16.94C214.691 17.32 214.891 17.91 214.891 18.71V32.63C214.891 33.43 214.691 34.03 214.291 34.43C213.911 34.81 213.321 35 212.521 35H210.931V33.23H211.891C212.291 33.23 212.541 33.17 212.641 33.05C212.761 32.93 212.821 32.68 212.821 32.3ZM209.251 29.12V32.3C209.251 32.68 209.311 32.93 209.431 33.05C209.551 33.17 209.801 33.23 210.181 33.23H211.261V35H209.581C208.781 35 208.181 34.81 207.781 34.43C207.401 34.03 207.211 33.43 207.211 32.63V29.12H209.251ZM223.102 16.34V18.11H216.532V16.34H223.102ZM223.912 16.34V17.72L219.082 35H217.042L222.172 16.34H223.912ZM227.508 16.34V18.11H224.658V16.34H227.508ZM226.698 16.34H228.738V35H226.698V16.34ZM233.836 16.34V18.11H230.986V16.34H233.836ZM233.026 16.34H235.066V35H233.026V16.34ZM239.654 19.04V22.1H237.614V18.71C237.614 17.91 237.804 17.32 238.184 16.94C238.584 16.54 239.184 16.34 239.984 16.34H242.504C243.304 16.34 243.894 16.54 244.274 16.94C244.674 17.32 244.874 17.91 244.874 18.71V24.08C244.874 24.52 244.774 24.86 244.574 25.1C244.374 25.34 244.104 25.48 243.764 25.52C244.104 25.58 244.374 25.72 244.574 25.94C244.774 26.16 244.874 26.49 244.874 26.93V32.63C244.874 33.43 244.674 34.03 244.274 34.43C243.894 34.81 243.304 35 242.504 35H239.984C239.184 35 238.584 34.81 238.184 34.43C237.804 34.03 237.614 33.43 237.614 32.63V29.27H239.654V32.3C239.654 32.68 239.714 32.93 239.834 33.05C239.954 33.17 240.204 33.23 240.584 33.23H241.904C242.304 33.23 242.554 33.17 242.654 33.05C242.774 32.93 242.834 32.68 242.834 32.3V27.38C242.834 26.98 242.774 26.73 242.654 26.63C242.554 26.51 242.304 26.45 241.904 26.45H239.714V24.65H241.904C242.304 24.65 242.554 24.59 242.654 24.47C242.774 24.35 242.834 24.1 242.834 23.72V19.04C242.834 18.64 242.774 18.39 242.654 18.29C242.554 18.17 242.304 18.11 241.904 18.11H240.584C240.204 18.11 239.954 18.17 239.834 18.29C239.714 18.39 239.654 18.64 239.654 19.04ZM249.832 16.34V18.11H246.982V16.34H249.832ZM249.022 16.34H251.062V35H249.022V16.34ZM255.65 19.04V22.1H253.61V18.71C253.61 17.91 253.8 17.32 254.18 16.94C254.58 16.54 255.18 16.34 255.98 16.34H258.5C259.3 16.34 259.89 16.54 260.27 16.94C260.67 17.32 260.87 17.91 260.87 18.71V24.08C260.87 24.52 260.77 24.86 260.57 25.1C260.37 25.34 260.1 25.48 259.76 25.52C260.1 25.58 260.37 25.72 260.57 25.94C260.77 26.16 260.87 26.49 260.87 26.93V32.63C260.87 33.43 260.67 34.03 260.27 34.43C259.89 34.81 259.3 35 258.5 35H255.98C255.18 35 254.58 34.81 254.18 34.43C253.8 34.03 253.61 33.43 253.61 32.63V29.27H255.65V32.3C255.65 32.68 255.71 32.93 255.83 33.05C255.95 33.17 256.2 33.23 256.58 33.23H257.9C258.3 33.23 258.55 33.17 258.65 33.05C258.77 32.93 258.83 32.68 258.83 32.3V27.38C258.83 26.98 258.77 26.73 258.65 26.63C258.55 26.51 258.3 26.45 257.9 26.45H255.71V24.65H257.9C258.3 24.65 258.55 24.59 258.65 24.47C258.77 24.35 258.83 24.1 258.83 23.72V19.04C258.83 18.64 258.77 18.39 258.65 18.29C258.55 18.17 258.3 18.11 257.9 18.11H256.58C256.2 18.11 255.95 18.17 255.83 18.29C255.71 18.39 255.65 18.64 255.65 19.04ZM263.518 31.19V29.42H272.128V31.19H263.518ZM262.528 31.19V29.6L267.448 16.34H269.458L263.968 31.19H262.528ZM268.558 25.88H270.538V35H268.558V25.88ZM275.074 19.04V22.1H273.034V18.71C273.034 17.91 273.224 17.32 273.604 16.94C274.004 16.54 274.604 16.34 275.404 16.34H277.924C278.724 16.34 279.314 16.54 279.694 16.94C280.094 17.32 280.294 17.91 280.294 18.71V24.08C280.294 24.52 280.194 24.86 279.994 25.1C279.794 25.34 279.524 25.48 279.184 25.52C279.524 25.58 279.794 25.72 279.994 25.94C280.194 26.16 280.294 26.49 280.294 26.93V32.63C280.294 33.43 280.094 34.03 279.694 34.43C279.314 34.81 278.724 35 277.924 35H275.404C274.604 35 274.004 34.81 273.604 34.43C273.224 34.03 273.034 33.43 273.034 32.63V29.27H275.074V32.3C275.074 32.68 275.134 32.93 275.254 33.05C275.374 33.17 275.624 33.23 276.004 33.23H277.324C277.724 33.23 277.974 33.17 278.074 33.05C278.194 32.93 278.254 32.68 278.254 32.3V27.38C278.254 26.98 278.194 26.73 278.074 26.63C277.974 26.51 277.724 26.45 277.324 26.45H275.134V24.65H277.324C277.724 24.65 277.974 24.59 278.074 24.47C278.194 24.35 278.254 24.1 278.254 23.72V19.04C278.254 18.64 278.194 18.39 278.074 18.29C277.974 18.17 277.724 18.11 277.324 18.11H276.004C275.624 18.11 275.374 18.17 275.254 18.29C275.134 18.39 275.074 18.64 275.074 19.04ZM282.942 31.19V29.42H291.552V31.19H282.942ZM281.952 31.19V29.6L286.872 16.34H288.882L283.392 31.19H281.952ZM287.982 25.88H289.962V35H287.982V25.88Z" fill="white"/>
</svg>
