<svg width="410" height="50" viewBox="0 0 410 50" fill="none" xmlns="http://www.w3.org/2000/svg">
<mask id="path-1-inside-1_244_603" fill="white">
<path d="M0 0H410V50H0V0Z"/>
</mask>
<path d="M0 0H410V50H0V0Z" fill="#970F2C"/>
<path d="M0 1.92H410V-1.92H0V1.92ZM410 48.08H0V51.92H410V48.08Z" fill="black" mask="url(#path-1-inside-1_244_603)"/>
<path d="M155.043 30.77V19.04C155.043 18.64 154.983 18.39 154.863 18.29C154.763 18.17 154.513 18.11 154.113 18.11H153.093V16.34H154.713C155.513 16.34 156.103 16.54 156.483 16.94C156.883 17.32 157.083 17.91 157.083 18.71V30.77H155.043ZM155.043 32.3V29.27H157.083V32.63C157.083 33.43 156.883 34.03 156.483 34.43C156.103 34.81 155.513 35 154.713 35H152.883V33.23H154.113C154.513 33.23 154.763 33.17 154.863 33.05C154.983 32.93 155.043 32.68 155.043 32.3ZM151.323 19.04V30.8H149.283V18.71C149.283 17.91 149.473 17.32 149.853 16.94C150.253 16.54 150.853 16.34 151.653 16.34H153.273V18.11H152.253C151.873 18.11 151.623 18.17 151.503 18.29C151.383 18.39 151.323 18.64 151.323 19.04ZM151.323 29.03V32.3C151.323 32.68 151.383 32.93 151.503 33.05C151.623 33.17 151.873 33.23 152.253 33.23H153.183V35H151.653C150.853 35 150.253 34.81 149.853 34.43C149.473 34.03 149.283 33.43 149.283 32.63V29.03H151.323ZM166.004 24.5V19.04C166.004 18.64 165.944 18.39 165.824 18.29C165.724 18.17 165.474 18.11 165.074 18.11H160.244V16.34H165.674C166.474 16.34 167.064 16.54 167.444 16.94C167.844 17.32 168.044 17.91 168.044 18.71V24.83C168.044 25.63 167.844 26.23 167.444 26.63C167.064 27.01 166.474 27.2 165.674 27.2H161.474V25.43H165.074C165.474 25.43 165.724 25.37 165.824 25.25C165.944 25.13 166.004 24.88 166.004 24.5ZM160.244 16.34H162.284V35H160.244V16.34ZM163.784 26.42H165.914L169.004 35H166.784L163.784 26.42ZM177.381 23.09V19.04C177.381 18.64 177.321 18.39 177.201 18.29C177.101 18.17 176.851 18.11 176.451 18.11H172.341V16.34H177.081C177.881 16.34 178.471 16.54 178.851 16.94C179.251 17.32 179.451 17.91 179.451 18.71V23.09H177.381ZM177.381 32.3V22.34H179.451V32.63C179.451 33.43 179.251 34.03 178.851 34.43C178.471 34.81 177.881 35 177.081 35H172.341V33.23H176.451C176.851 33.23 177.101 33.17 177.201 33.05C177.321 32.93 177.381 32.68 177.381 32.3ZM171.171 16.34H173.241V35H171.171V16.34ZM182.597 16.34H184.667V35H182.597V16.34ZM188.687 24.41V26.18H183.917V24.41H188.687ZM189.587 16.34V18.11H183.917V16.34H189.587ZM189.797 33.23V35H183.917V33.23H189.797ZM197.82 24.5V19.04C197.82 18.64 197.76 18.39 197.64 18.29C197.54 18.17 197.29 18.11 196.89 18.11H192.06V16.34H197.49C198.29 16.34 198.88 16.54 199.26 16.94C199.66 17.32 199.86 17.91 199.86 18.71V24.83C199.86 25.63 199.66 26.23 199.26 26.63C198.88 27.01 198.29 27.2 197.49 27.2H193.29V25.43H196.89C197.29 25.43 197.54 25.37 197.64 25.25C197.76 25.13 197.82 24.88 197.82 24.5ZM192.06 16.34H194.1V35H192.06V16.34ZM195.6 26.42H197.73L200.82 35H198.6L195.6 26.42ZM212.494 30.77V19.04C212.494 18.64 212.434 18.39 212.314 18.29C212.214 18.17 211.964 18.11 211.564 18.11H210.544V16.34H212.164C212.964 16.34 213.554 16.54 213.934 16.94C214.334 17.32 214.534 17.91 214.534 18.71V30.77H212.494ZM212.494 32.3V29.27H214.534V32.63C214.534 33.43 214.334 34.03 213.934 34.43C213.554 34.81 212.964 35 212.164 35H210.334V33.23H211.564C211.964 33.23 212.214 33.17 212.314 33.05C212.434 32.93 212.494 32.68 212.494 32.3ZM208.774 19.04V30.8H206.734V18.71C206.734 17.91 206.924 17.32 207.304 16.94C207.704 16.54 208.304 16.34 209.104 16.34H210.724V18.11H209.704C209.324 18.11 209.074 18.17 208.954 18.29C208.834 18.39 208.774 18.64 208.774 19.04ZM208.774 29.03V32.3C208.774 32.68 208.834 32.93 208.954 33.05C209.074 33.17 209.324 33.23 209.704 33.23H210.634V35H209.104C208.304 35 207.704 34.81 207.304 34.43C206.924 34.03 206.734 33.43 206.734 32.63V29.03H208.774ZM223.815 16.34H225.705V35H223.455L219.585 20.54V35H217.695V16.34H220.095L223.815 30.29V16.34ZM229.004 16.34H231.044V35H229.004V16.34ZM230.234 35V33.23H235.334V35H230.234ZM237.448 16.34H239.488V35H237.448V16.34ZM249.215 16.34H251.105V35H248.855L244.985 20.54V35H243.095V16.34H245.495L249.215 30.29V16.34ZM254.404 16.34H256.474V35H254.404V16.34ZM260.494 24.41V26.18H255.724V24.41H260.494ZM261.394 16.34V18.11H255.724V16.34H261.394ZM261.604 33.23V35H255.724V33.23H261.604Z" fill="white"/>
</svg>
