<svg width="391" height="50" viewBox="0 0 391 50" fill="none" xmlns="http://www.w3.org/2000/svg">
<rect width="391" height="50" fill="black"/>
<path d="M76.6248 23.6782V17.9182C76.6248 17.5182 76.5648 17.2682 76.4448 17.1682C76.3448 17.0482 76.0948 16.9882 75.6948 16.9882H70.8648V15.2182H76.2948C77.0948 15.2182 77.6848 15.4182 78.0648 15.8182C78.4648 16.1982 78.6648 16.7882 78.6648 17.5882V24.0082C78.6648 24.8082 78.4648 25.4082 78.0648 25.8082C77.6848 26.1882 77.0948 26.3782 76.2948 26.3782H72.0948V24.6082H75.6948C76.0948 24.6082 76.3448 24.5482 76.4448 24.4282C76.5648 24.3082 76.6248 24.0582 76.6248 23.6782ZM70.8648 15.2182H72.9048V33.8782H70.8648V15.2182ZM86.8166 29.6482V17.9182C86.8166 17.5182 86.7566 17.2682 86.6366 17.1682C86.5366 17.0482 86.2866 16.9882 85.8866 16.9882H84.8666V15.2182H86.4866C87.2866 15.2182 87.8766 15.4182 88.2566 15.8182C88.6566 16.1982 88.8566 16.7882 88.8566 17.5882V29.6482H86.8166ZM86.8166 31.1782V28.1482H88.8566V31.5082C88.8566 32.3082 88.6566 32.9082 88.2566 33.3082C87.8766 33.6882 87.2866 33.8782 86.4866 33.8782H84.6566V32.1082H85.8866C86.2866 32.1082 86.5366 32.0482 86.6366 31.9282C86.7566 31.8082 86.8166 31.5582 86.8166 31.1782ZM83.0966 17.9182V29.6782H81.0566V17.5882C81.0566 16.7882 81.2466 16.1982 81.6266 15.8182C82.0266 15.4182 82.6266 15.2182 83.4266 15.2182H85.0466V16.9882H84.0266C83.6466 16.9882 83.3966 17.0482 83.2766 17.1682C83.1566 17.2682 83.0966 17.5182 83.0966 17.9182ZM83.0966 27.9082V31.1782C83.0966 31.5582 83.1566 31.8082 83.2766 31.9282C83.3966 32.0482 83.6466 32.1082 84.0266 32.1082H84.9566V33.8782H83.4266C82.6266 33.8782 82.0266 33.6882 81.6266 33.3082C81.2466 32.9082 81.0566 32.3082 81.0566 31.5082V27.9082H83.0966ZM104.467 15.2182H106.537L103.807 33.8782H100.687L98.5872 19.0882L96.5172 33.8782H93.3972L90.6672 15.2182H92.7372L94.9872 32.4382L97.3572 15.2182H99.8172L102.187 32.4382L104.467 15.2182ZM108.482 15.2182H110.552V33.8782H108.482V15.2182ZM114.572 23.2882V25.0582H109.802V23.2882H114.572ZM115.472 15.2182V16.9882H109.802V15.2182H115.472ZM115.682 32.1082V33.8782H109.802V32.1082H115.682ZM123.705 23.3782V17.9182C123.705 17.5182 123.645 17.2682 123.525 17.1682C123.425 17.0482 123.175 16.9882 122.775 16.9882H117.945V15.2182H123.375C124.175 15.2182 124.765 15.4182 125.145 15.8182C125.545 16.1982 125.745 16.7882 125.745 17.5882V23.7082C125.745 24.5082 125.545 25.1082 125.145 25.5082C124.765 25.8882 124.175 26.0782 123.375 26.0782H119.175V24.3082H122.775C123.175 24.3082 123.425 24.2482 123.525 24.1282C123.645 24.0082 123.705 23.7582 123.705 23.3782ZM117.945 15.2182H119.985V33.8782H117.945V15.2182ZM121.485 25.2982H123.615L126.705 33.8782H124.485L121.485 25.2982ZM128.873 15.2182H130.943V33.8782H128.873V15.2182ZM134.963 23.2882V25.0582H130.193V23.2882H134.963ZM135.863 15.2182V16.9882H130.193V15.2182H135.863ZM136.073 32.1082V33.8782H130.193V32.1082H136.073ZM144.546 21.9682V17.9182C144.546 17.5182 144.486 17.2682 144.366 17.1682C144.266 17.0482 144.016 16.9882 143.616 16.9882H139.506V15.2182H144.246C145.046 15.2182 145.636 15.4182 146.016 15.8182C146.416 16.1982 146.616 16.7882 146.616 17.5882V21.9682H144.546ZM144.546 31.1782V21.2182H146.616V31.5082C146.616 32.3082 146.416 32.9082 146.016 33.3082C145.636 33.6882 145.046 33.8782 144.246 33.8782H139.506V32.1082H143.616C144.016 32.1082 144.266 32.0482 144.366 31.9282C144.486 31.8082 144.546 31.5582 144.546 31.1782ZM138.336 15.2182H140.406V33.8782H138.336V15.2182ZM153.658 15.2182H159.568C160.368 15.2182 160.958 15.4182 161.338 15.8182C161.738 16.1982 161.938 16.7882 161.938 17.5882V22.9582C161.938 23.3982 161.838 23.7482 161.638 24.0082C161.438 24.2482 161.168 24.3882 160.828 24.4282C161.168 24.4882 161.438 24.6282 161.638 24.8482C161.838 25.0482 161.938 25.3682 161.938 25.8082V31.5082C161.938 32.3082 161.738 32.9082 161.338 33.3082C160.958 33.6882 160.368 33.8782 159.568 33.8782H153.658V15.2182ZM159.868 31.1782V26.1682C159.868 25.7682 159.808 25.5182 159.688 25.4182C159.588 25.2982 159.338 25.2382 158.938 25.2382H155.728V32.1082H158.938C159.338 32.1082 159.588 32.0482 159.688 31.9282C159.808 31.8082 159.868 31.5582 159.868 31.1782ZM159.868 22.5382V17.9182C159.868 17.5182 159.808 17.2682 159.688 17.1682C159.588 17.0482 159.338 16.9882 158.938 16.9882H155.728V23.4682H158.938C159.338 23.4682 159.588 23.4082 159.688 23.2882C159.808 23.1682 159.868 22.9182 159.868 22.5382ZM169.314 28.1782H167.274L163.584 15.2182H165.654L168.294 26.1682L170.784 15.2182H172.854L169.314 28.1782ZM167.274 27.0082H169.314V33.8782H167.274V27.0082ZM180.06 15.2182H182.1V33.8782H180.06V15.2182ZM185.1 15.2182V16.9882H177.06V15.2182H185.1ZM186.91 15.2182H188.98V33.8782H186.91V15.2182ZM193 23.2882V25.0582H188.23V23.2882H193ZM193.9 15.2182V16.9882H188.23V15.2182H193.9ZM194.11 32.1082V33.8782H188.23V32.1082H194.11ZM202.433 27.3682V29.1382H197.213V27.3682H202.433ZM204.563 33.8782H202.493L199.703 16.6582L197.243 33.8782H195.173L198.083 15.2182H201.353L204.563 33.8782ZM213.226 29.8282H211.036L208.426 19.7482V33.8782H206.656V15.2182H208.906L212.116 27.2182L215.356 15.2182H217.606V33.8782H215.836V19.7482L213.226 29.8282ZM230.551 23.3782V17.9182C230.551 17.5182 230.491 17.2682 230.371 17.1682C230.271 17.0482 230.021 16.9882 229.621 16.9882H224.791V15.2182H230.221C231.021 15.2182 231.611 15.4182 231.991 15.8182C232.391 16.1982 232.591 16.7882 232.591 17.5882V23.7082C232.591 24.5082 232.391 25.1082 231.991 25.5082C231.611 25.8882 231.021 26.0782 230.221 26.0782H226.021V24.3082H229.621C230.021 24.3082 230.271 24.2482 230.371 24.1282C230.491 24.0082 230.551 23.7582 230.551 23.3782ZM224.791 15.2182H226.831V33.8782H224.791V15.2182ZM228.331 25.2982H230.461L233.551 33.8782H231.331L228.331 25.2982ZM235.718 15.2182H237.788V33.8782H235.718V15.2182ZM241.808 23.2882V25.0582H237.038V23.2882H241.808ZM242.708 15.2182V16.9882H237.038V15.2182H242.708ZM242.918 32.1082V33.8782H237.038V32.1082H242.918ZM251.301 15.2182H253.191V33.8782H250.941L247.071 19.4182V33.8782H245.181V15.2182H247.581L251.301 29.1682V15.2182ZM257.99 15.2182H260.03V33.8782H257.99V15.2182ZM263.03 15.2182V16.9882H254.99V15.2182H263.03ZM281.336 34.9282H279.086L271.346 25.2682C270.786 24.5082 270.236 23.7682 269.696 23.0482C269.156 22.3082 268.886 21.5182 268.886 20.6782V17.5882C268.886 16.7882 269.076 16.1982 269.456 15.8182C269.856 15.4182 270.456 15.2182 271.256 15.2182H274.016C274.816 15.2182 275.406 15.4182 275.786 15.8182C276.186 16.1982 276.386 16.7882 276.386 17.5882V20.5582C276.386 21.2582 276.306 21.8582 276.146 22.3582C275.986 22.8382 275.756 23.2482 275.456 23.5882C275.156 23.9282 274.776 24.2482 274.316 24.5482L271.256 26.7382C270.936 26.9582 270.696 27.1882 270.536 27.4282C270.396 27.6682 270.326 28.0482 270.326 28.5682V31.1782C270.326 31.5582 270.386 31.8082 270.506 31.9282C270.626 32.0482 270.876 32.1082 271.256 32.1082H276.176C276.576 32.1082 276.826 32.0482 276.926 31.9282C277.046 31.8082 277.106 31.5582 277.106 31.1782V27.1582H278.786V31.5082C278.786 32.3082 278.586 32.9082 278.186 33.3082C277.806 33.6882 277.216 33.8782 276.416 33.8782H270.656C269.856 33.8782 269.256 33.6882 268.856 33.3082C268.476 32.9082 268.286 32.3082 268.286 31.5082V28.0282C268.286 27.6482 268.336 27.3182 268.436 27.0382C268.536 26.7382 268.696 26.4682 268.916 26.2282C269.156 25.9682 269.466 25.7082 269.846 25.4482L272.636 23.2882C273.216 22.8882 273.646 22.4982 273.926 22.1182C274.206 21.7382 274.346 21.2182 274.346 20.5582V17.9182C274.346 17.5182 274.286 17.2682 274.166 17.1682C274.066 17.0482 273.816 16.9882 273.416 16.9882H271.856C271.476 16.9882 271.226 17.0482 271.106 17.1682C270.986 17.2682 270.926 17.5182 270.926 17.9182V20.8582C270.926 21.2382 271.046 21.6282 271.286 22.0282C271.526 22.4282 271.796 22.8182 272.096 23.1982C272.416 23.5582 272.696 23.8982 272.936 24.2182L281.336 34.9282ZM290.931 23.3782V17.9182C290.931 17.5182 290.871 17.2682 290.751 17.1682C290.651 17.0482 290.401 16.9882 290.001 16.9882H285.171V15.2182H290.601C291.401 15.2182 291.991 15.4182 292.371 15.8182C292.771 16.1982 292.971 16.7882 292.971 17.5882V23.7082C292.971 24.5082 292.771 25.1082 292.371 25.5082C291.991 25.8882 291.401 26.0782 290.601 26.0782H286.401V24.3082H290.001C290.401 24.3082 290.651 24.2482 290.751 24.1282C290.871 24.0082 290.931 23.7582 290.931 23.3782ZM285.171 15.2182H287.211V33.8782H285.171V15.2182ZM288.711 25.2982H290.841L293.931 33.8782H291.711L288.711 25.2982ZM296.399 15.2182H298.439V33.8782H296.399V15.2182ZM308.256 21.9682V17.9182C308.256 17.5182 308.196 17.2682 308.076 17.1682C307.976 17.0482 307.726 16.9882 307.326 16.9882H303.216V15.2182H307.956C308.756 15.2182 309.346 15.4182 309.726 15.8182C310.126 16.1982 310.326 16.7882 310.326 17.5882V21.9682H308.256ZM308.256 31.1782V21.2182H310.326V31.5082C310.326 32.3082 310.126 32.9082 309.726 33.3082C309.346 33.6882 308.756 33.8782 307.956 33.8782H303.216V32.1082H307.326C307.726 32.1082 307.976 32.0482 308.076 31.9282C308.196 31.8082 308.256 31.5582 308.256 31.1782ZM302.046 15.2182H304.116V33.8782H302.046V15.2182ZM313.472 15.2182H315.542V33.8782H313.472V15.2182ZM319.562 23.2882V25.0582H314.792V23.2882H319.562ZM320.462 15.2182V16.9882H314.792V15.2182H320.462ZM320.672 32.1082V33.8782H314.792V32.1082H320.672Z" fill="white"/>
</svg>
