<svg width="389" height="49" viewBox="0 0 389 49" fill="none" xmlns="http://www.w3.org/2000/svg">
<path fill-rule="evenodd" clip-rule="evenodd" d="M37.086 44.13L37.3353 45.7629L22.2754 45.7552L20.9141 34.4726L22.4202 29.1055L24.1216 44.13H37.086Z" fill="#0275AD"/>
<path fill-rule="evenodd" clip-rule="evenodd" d="M100.863 24.7986L101.786 21.043L105.997 27.4945L102.434 43.8941H115.607L115.175 45.6671L100.188 45.6654L103.73 28.8241L100.863 24.7986Z" fill="#0275AD"/>
<path fill-rule="evenodd" clip-rule="evenodd" d="M10.4376 15.7832L46.782 15.7656L46.4749 17.1231L46.0818 18.2852L45.6326 19.3899L45.1302 20.4722L44.5061 21.6364L43.9456 22.4736L42.9358 23.7291L42.0891 24.5995L40.966 25.5304L39.9132 26.2483L37.4494 27.4966L39.3578 44.1228L24.1104 44.1437L22.3971 29.1027L18.2657 44.1228L3.00781 44.1325L10.4376 15.7832Z" fill="#FF0000"/>
<path fill-rule="evenodd" clip-rule="evenodd" d="M306.101 12.4816L305.679 14.1475L290.594 14.2411L293.952 1.25265L295.897 1.23828L292.996 12.4816H306.101Z" fill="#0275AD"/>
<path fill-rule="evenodd" clip-rule="evenodd" d="M186.809 17.57L184.81 17.4648L184.657 18.1939L184.607 19.3741L184.621 19.8696L184.674 20.3198L184.725 20.5818L184.808 20.9067L184.919 21.2472L185.116 21.7244L185.398 22.2881L185.86 23.1239L186.156 23.71L185.988 23.9634L185.849 24.1445L185.706 24.3131L185.533 24.4984L185.345 24.685L185.117 24.8985L184.856 25.1336L184.683 25.2885L184.561 25.3984L184.505 25.4492L184.404 25.5406L184.303 25.6349L184.202 25.7305L184.075 25.8526L183.982 25.9444L183.888 26.0399L183.783 26.1492L183.684 26.256L183.568 26.3854L183.512 26.4492L183.46 26.5099L183.397 26.5858L183.344 26.6502L183.285 26.7235L183.22 26.807L183.154 26.8934L183.076 26.9984L183.011 27.088L182.952 27.1726L182.881 27.2767L182.792 27.413L182.702 27.5554L182.643 27.6512L182.579 27.761L182.473 27.9484L182.412 28.0602L182.347 28.1846L182.222 28.4355L182.197 28.4895L182.111 28.6748L182.063 28.7819L182.017 28.8897L181.926 29.1093L181.842 29.3233L181.762 29.5405L181.701 29.7128L181.618 29.9584L181.578 30.087L181.044 31.914L180.375 34.62L180.25 35.3166L180.153 36.0128L180.075 36.8477L180.047 37.6676L180.067 38.4021L180.139 39.1674L180.25 39.8324L180.411 40.5025L180.693 41.3856L180.887 41.8477L181.173 42.388L181.478 42.8479L181.856 43.3077L182.037 43.4971L182.222 43.6743L182.404 43.8327L182.474 43.8908L182.551 43.9506L182.636 44.0172L182.74 44.0946L182.873 44.1883L183.039 44.2978L183.186 44.3894L183.255 44.4306L183.399 44.5132L183.557 44.5987L183.711 44.6766L183.904 44.7687L184.053 44.8354L184.139 44.8725L184.263 44.9236L184.53 45.0263L185.098 45.2148L185.788 45.3972L186.464 45.5364L187.193 45.6506L187.988 45.7409L188.641 45.7934L189.54 45.8398L190.789 45.8663L192.075 45.8628L194.545 45.8213L195.315 45.8122L196.383 45.8125L197.564 45.844L198.551 45.9092L197.555 48.9018L213.12 48.9323L213.549 47.2317H200.073L200.943 44.2089L200.361 44.1475L199.588 44.0921L198.804 44.0605L198.054 44.0487L197.442 44.0494L196.682 44.0599L195.927 44.0773L194.125 44.1271L193.444 44.1415L192.77 44.1494L191.773 44.1434L191.106 44.1227L190.506 44.091L189.869 44.0394L189.421 43.9894L189.022 43.9352L188.438 43.8347L188.152 43.7751L187.916 43.7209L187.741 43.6771L187.534 43.621L187.323 43.5593L187.134 43.4995L186.863 43.4062L186.604 43.3089L186.376 43.2124L186.246 43.1545L186.004 43.0388L185.709 42.8836L185.503 42.7642L185.292 42.6318L185.14 42.5299L185.008 42.4367L184.95 42.3938L184.837 42.3086L184.718 42.218L184.585 42.1118L184.412 41.965L184.308 41.8712L184.208 41.7763L184.135 41.7049L184.024 41.5924L183.939 41.5015L183.776 41.3154L183.637 41.1454L183.494 40.9542L183.376 40.7853L183.241 40.5739L183.112 40.3525L183.018 40.1772L182.915 39.9704L182.775 39.6514L182.733 39.547L182.698 39.4506L182.666 39.3666L182.601 39.1767L182.535 38.9637L182.49 38.8041L182.436 38.5945L182.344 38.1661L182.294 37.867L182.258 37.6091L182.21 37.1253L182.197 36.937L182.186 36.7256L182.181 36.5894L182.177 36.3993L182.176 36.0851L182.183 35.8027L182.204 35.3458L182.239 34.8832L182.302 34.2947L182.4 33.5978L182.541 32.7976L182.92 31.0916L183.342 29.513L183.603 28.6059L183.714 28.2261L183.769 28.0437L183.857 27.8273L183.974 27.5535L184.093 27.2899L184.313 26.8369L184.453 26.5686L184.569 26.3585L184.722 26.0944L184.899 25.8069L185.073 25.5412L185.247 25.2887L185.455 25.0057L185.682 24.7149L185.9 24.4529L186.192 24.1235L186.396 23.9057L186.687 23.6122L186.955 23.3567L187.219 23.1163L187.409 22.9489L187.535 22.8413L187.756 22.6565L188.039 22.4272L188.331 22.1986L188.283 22.0293L188.192 21.7756L188.055 21.4816L187.901 21.2123L187.731 20.9423L187.463 20.5157L187.314 20.2547L187.253 20.1383L187.226 20.0775L187.155 19.9027L187.077 19.6943L187.019 19.5253L186.973 19.3824L186.92 19.1777L186.898 19.0768L186.874 18.9482L186.839 18.6799L186.819 18.3845L186.814 18.2389L186.811 18.0551L186.809 17.8978L186.809 17.57Z" fill="#0275AD"/>
<path fill-rule="evenodd" clip-rule="evenodd" d="M187.029 15.7734L223.342 15.868L223.161 16.4179L222.978 16.8534L222.629 17.5536L222.159 18.3532L221.776 18.9345L221.215 19.7038L220.334 20.7425L219.253 21.7124L219.141 21.8172L219.064 21.9173L218.993 22.0194L218.998 22.1193L219.02 22.2786L219.088 22.5466L219.258 22.9881L219.709 23.9458L219.891 24.3813L220.026 24.7956L220.183 25.5549L220.266 26.2118L220.298 26.9085L220.283 27.3485L220.233 27.7573L220.116 28.3224L220.022 28.8413L219.808 29.8009L219.61 30.4643L219.537 30.7228L219.476 30.9871L219.441 31.2211L219.428 31.4547L222.535 31.5491L219.273 44.1262L216.167 44.113L215.297 47.2303H200.076L200.946 44.2075L200.364 44.1461L199.591 44.0907L198.807 44.059L198.057 44.0473L197.445 44.048L196.685 44.0585L195.951 44.0754L194.128 44.1257L193.495 44.1392L192.772 44.148L192.283 44.1484L191.438 44.134L190.93 44.1141L190.51 44.0902L189.858 44.0367L189.425 43.9885L189.019 43.933L188.561 43.8558L188.262 43.797L187.919 43.7195L187.702 43.6645L187.604 43.6381L187.442 43.5927L187.321 43.5565L187.124 43.4941L186.904 43.4181L186.26 43.1579L186.018 43.0429L185.712 42.8821L185.326 42.6499L185.008 42.4329L184.679 42.183L184.454 41.9966L184.164 41.7293L183.933 41.489L183.759 41.2908L183.64 41.144L183.497 40.9528L183.379 40.7839L183.244 40.5725L183.114 40.3511L183.02 40.1758L182.918 39.969L182.778 39.6485L182.737 39.5463L182.668 39.3631L182.604 39.1753L182.538 38.9623L182.493 38.8027L182.439 38.5931L182.347 38.1647L182.297 37.8656L182.261 37.6077L182.213 37.1239L182.2 36.9356L182.18 36.3974L182.18 36.0831L182.186 35.7998L182.207 35.3444L182.242 34.8818L182.305 34.2932L182.403 33.5964L182.544 32.7962L182.923 31.0901L183.345 29.5116L183.604 28.6124L183.772 28.0423L183.86 27.8259L183.978 27.5494L184.096 27.2883L184.316 26.8355L184.456 26.5672L184.572 26.3571L184.725 26.093L184.902 25.8055L185.075 25.5398L185.25 25.2873L185.458 25.0043L185.685 24.7135L185.903 24.4515L186.195 24.1221L186.399 23.9043L186.69 23.6108L186.959 23.3544L187.221 23.1149L187.412 22.9475L187.538 22.8399L187.759 22.6551L188.042 22.4258L188.334 22.1972L188.286 22.0279L188.195 21.7742L188.055 21.475L187.904 21.2109L187.734 20.9408L187.468 20.5167L187.317 20.2533L187.256 20.1369L187.229 20.0761L187.158 19.9013L187.119 19.7972L187.08 19.6929L187.021 19.5216L186.976 19.381L186.923 19.1763L186.901 19.0754L186.877 18.9468L186.842 18.678L186.822 18.3831L186.817 18.2211L186.812 17.8927L186.812 17.5686L187.029 15.7734Z" fill="#FF0000"/>
<path d="M197.961 31.5493H202.337L202.693 30.129L198.312 30.1289L197.961 31.5493Z" fill="white"/>
<path fill-rule="evenodd" clip-rule="evenodd" d="M14.5585 0.0742188L11.2969 12.6382L47.6369 12.5581L47.9786 11.3281L48.2075 10.0697L48.3149 8.98332L48.3389 7.95694L48.1741 6.11625L47.8277 4.73239L47.1728 3.32216L46.2873 2.23388L45.081 1.34871L43.5615 0.704076L41.8161 0.311603L40.0961 0.134005L14.5585 0.0742188Z" fill="#FF6E00"/>
<path fill-rule="evenodd" clip-rule="evenodd" d="M16.5232 44.1161L16.0882 45.8163H0.867188L8.28461 17.5129L9.98123 17.5078L3.00486 44.1258L16.5232 44.1161Z" fill="#0275AD"/>
<path fill-rule="evenodd" clip-rule="evenodd" d="M14.1204 1.76953L12.3865 1.77182L9.125 14.3354L45.5852 14.2048L45.9336 12.5591L11.2994 12.6352L14.1204 1.76953Z" fill="#0275AD"/>
<path fill-rule="evenodd" clip-rule="evenodd" d="M56.3399 0.0898438H86.7821L83.3032 12.654L53.0781 12.5594L56.3399 0.0898438Z" fill="#FF6E00"/>
<path fill-rule="evenodd" clip-rule="evenodd" d="M55.8969 1.78828L54.0417 1.78125L50.828 14.3508L81.1305 14.352L81.5653 12.6518L53.0799 12.5572L55.8969 1.78828Z" fill="#0275AD"/>
<path fill-rule="evenodd" clip-rule="evenodd" d="M52.409 15.7148H82.4164L79.2354 28.279L64.1778 28.3002L63.4986 31.4903H78.422L75.2407 44.0544H45.0156L52.409 15.7148Z" fill="#FF0000"/>
<path fill-rule="evenodd" clip-rule="evenodd" d="M73.5027 44.0524L73.0679 45.7526H42.8438L50.0193 17.5078L51.9397 17.5203L45.018 44.0524H73.5027Z" fill="#0275AD"/>
<path fill-rule="evenodd" clip-rule="evenodd" d="M92.2226 0.09375H107.444L111.793 5.95062L113.532 0.09375H128.536L125.409 12.6529L88.9609 12.6579L92.2226 0.09375Z" fill="#FF6E00"/>
<path fill-rule="evenodd" clip-rule="evenodd" d="M80.6641 44.0186L88.0573 15.7734L124.37 15.868L117.195 44.113H102.191L105.779 28.3847L101.539 22.1972L95.8851 44.113L80.6641 44.0186Z" fill="#FF0000"/>
<path fill-rule="evenodd" clip-rule="evenodd" d="M123.529 12.6565L123.095 14.3569L86.7812 14.2625L90.0428 1.79297L91.7619 1.84642L88.9557 12.6565H123.529Z" fill="#0275AD"/>
<path fill-rule="evenodd" clip-rule="evenodd" d="M94.1509 44.103L93.7119 45.815L78.6328 45.8004L85.816 17.5039L87.5927 17.5547L80.6651 44.0202L94.1509 44.103Z" fill="#0275AD"/>
<path fill-rule="evenodd" clip-rule="evenodd" d="M134.402 0.09375H167.671L164.53 12.6232L131.141 12.6579L134.402 0.09375Z" fill="#FF6E00"/>
<path fill-rule="evenodd" clip-rule="evenodd" d="M162.454 12.6565L162.03 14.4061L128.75 14.3569L131.794 1.79297L133.962 1.79543L131.161 12.5836L162.454 12.6565Z" fill="#0275AD"/>
<path fill-rule="evenodd" clip-rule="evenodd" d="M187.883 12.6878L187.908 12.5097L187.942 12.2422L187.959 12.133L187.981 12.0041L188.013 11.8345L188.047 11.6783L188.093 11.4845L188.166 11.2109L188.236 10.9728L188.334 10.673L188.481 10.2674L188.691 9.74758L188.949 9.17716L189.228 8.61148L189.547 8.01116L189.828 7.51442L190.168 6.94065L190.454 6.47467L190.799 5.93203L191.592 4.71979L192.221 4.14497L192.931 3.54747L193.661 2.99093L194.467 2.44249L195.329 1.93256L196.346 1.42649L197.44 0.99146L198.491 0.668266L198.95 0.553266L199.438 0.446356L199.873 0.364064L200.452 0.27122L201.366 0.159034L202.555 0.0658384L204.165 0.0085144L206.329 0.0078125L210.837 0.0719923L214.181 0.0923904L216.329 0.150242L217.08 0.202818L218.115 0.318696L218.923 0.454796L219.44 0.568566L220.168 0.772012L220.995 1.07956L221.537 1.33646L222.077 1.64822L222.428 1.88613L222.846 2.21425L223.2 2.58123L223.598 3.10101L224.082 3.96614L224.468 5.03349L224.685 6.05336L224.807 7.41858L224.788 8.76851L224.672 10.0351L224.436 11.5491L224.208 12.6549L187.883 12.6878Z" fill="#FF6E00"/>
<path fill-rule="evenodd" clip-rule="evenodd" d="M222.264 12.6551L221.815 14.388L185.734 14.4165L185.744 13.9777L185.836 13.4411L185.941 13.0178L186.128 12.4189L186.491 11.4782L186.734 10.9322L187.054 10.2719L187.772 8.96736L188.199 8.2742L188.729 7.48749L189.083 7.00164L189.423 6.56784L189.76 6.16957L189.911 6.00129L190.165 5.73577L190.309 5.59492L190.497 5.42119L190.665 5.27806L190.845 5.13809L190.932 5.07567L191.015 5.02028L191.125 4.9517L191.235 4.89068L191.327 4.84602L191.594 4.71484L190.797 5.96507L190.453 6.50753L190.166 6.97368L189.826 7.54745L189.545 8.0442L189.226 8.64451L188.947 9.21019L188.689 9.78044L188.479 10.3004L188.332 10.7061L188.234 11.0059L188.164 11.244L188.091 11.5176L188.045 11.7112L188.011 11.8675L187.979 12.0372L187.957 12.1661L187.94 12.2753L187.907 12.5427L187.893 12.688L222.264 12.6551Z" fill="#0275AD"/>
<path fill-rule="evenodd" clip-rule="evenodd" d="M253.832 0.078125L250.57 12.6419L286.91 12.5619L287.252 11.3321L287.481 10.0734L287.588 8.98723L287.613 7.96068L287.448 6.11998L287.101 4.73612L286.446 3.32589L285.561 2.23761L284.355 1.35244L282.835 0.707983L281.09 0.315509L279.37 0.137735L253.832 0.078125Z" fill="#FF6E00"/>
<path fill-rule="evenodd" clip-rule="evenodd" d="M255.796 44.1241L255.362 45.8243H240.141L247.558 17.5211L249.255 17.5156L242.278 44.1337L255.796 44.1241Z" fill="#0275AD"/>
<path fill-rule="evenodd" clip-rule="evenodd" d="M249.703 15.7873L285.962 15.7734L285.74 17.1272L285.347 18.2895L284.898 19.3943L284.396 20.4766L283.772 21.6409L283.211 22.4777L282.201 23.7334L281.355 24.6038L280.231 25.5347L279.179 26.2524L276.715 27.5007L278.623 44.1269L263.376 44.148L261.663 29.1068L257.531 44.1269L242.273 44.1369L249.703 15.7873Z" fill="#FF0000"/>
<path fill-rule="evenodd" clip-rule="evenodd" d="M276.169 44.133L276.445 45.8298L261.452 45.8221L260.117 34.7134L261.659 29.1094L263.372 44.1505L276.169 44.133Z" fill="#0275AD"/>
<path fill-rule="evenodd" clip-rule="evenodd" d="M253.386 1.77734L251.652 1.77963L248.391 14.3434L284.851 14.2124L285.199 12.5671L250.565 12.643L253.386 1.77734Z" fill="#0275AD"/>
<path fill-rule="evenodd" clip-rule="evenodd" d="M358.108 1.87405L356.253 1.86719L353.039 14.4366L383.342 14.4378L383.776 12.7376L355.291 12.643L358.108 1.87405Z" fill="#0275AD"/>
<path fill-rule="evenodd" clip-rule="evenodd" d="M358.559 0.175781H389.001L385.522 12.7397L355.297 12.6451L358.559 0.175781Z" fill="#FF6E00"/>
<path fill-rule="evenodd" clip-rule="evenodd" d="M354.627 15.7969H384.635L381.476 28.2731H366.42L365.717 31.5725H380.641L377.459 44.1361H347.234L354.627 15.7969Z" fill="#FF0000"/>
<path fill-rule="evenodd" clip-rule="evenodd" d="M379.915 28.2734L379.48 29.8796L366.062 29.9522L366.419 28.2752L379.915 28.2734Z" fill="#0275AD"/>
<path fill-rule="evenodd" clip-rule="evenodd" d="M77.6884 28.2227L77.2534 29.8288L63.8359 29.9014L64.1925 28.2244L77.6884 28.2227Z" fill="#0275AD"/>
<path fill-rule="evenodd" clip-rule="evenodd" d="M375.721 44.1384L375.287 45.8386H345.062L352.238 17.5938L354.158 17.6062L347.237 44.1384H375.721Z" fill="#0275AD"/>
<path fill-rule="evenodd" clip-rule="evenodd" d="M296.062 0.0195312L310.968 0.0949672L307.924 12.6591H292.703L296.062 0.0195312Z" fill="#FF6E00"/>
<path fill-rule="evenodd" clip-rule="evenodd" d="M292.176 15.8711H307.179L299.786 44.2107H285L292.176 15.8711Z" fill="#FF0000"/>
<path fill-rule="evenodd" clip-rule="evenodd" d="M297.831 44.2118L297.397 45.908L282.383 45.905L289.785 17.5726L291.747 17.5703L285.002 44.2104L297.831 44.2118Z" fill="#0275AD"/>
<path fill-rule="evenodd" clip-rule="evenodd" d="M145.089 44.1296L144.655 45.8259L129.641 45.8228L137.043 17.4906L139.005 17.4883L132.259 44.1282L145.089 44.1296Z" fill="#0275AD"/>
<path fill-rule="evenodd" clip-rule="evenodd" d="M139.441 15.7891H154.445L147.052 44.1286H132.266L139.441 15.7891Z" fill="#FF0000"/>
<path fill-rule="evenodd" clip-rule="evenodd" d="M316.622 0.093196L313.578 12.6573H349.674L349.783 12.4087L349.888 12.14L349.99 11.85L350.067 11.6037L350.173 11.2196L350.256 10.8644L350.303 10.6288L350.369 10.2487L350.407 9.98366L350.441 9.69423L350.464 9.46845L350.498 8.96977L350.512 8.45509L350.509 8.04309L350.49 7.59628L350.442 7.01619L350.302 6.06753L350.172 5.47759L350.062 5.0758L349.902 4.58907L349.765 4.2388L349.693 4.07368L349.636 3.94936L349.575 3.82417L349.513 3.70231L349.435 3.55847L349.356 3.42184L349.268 3.27924L349.196 3.16969L349.1 3.03218L349.016 2.92052L348.941 2.83137L348.767 2.6383L348.56 2.42712L348.321 2.20661L348.131 2.04678L347.755 1.76508L347.454 1.56726L346.953 1.28451L346.433 1.04168L346.027 0.88131L345.529 0.714614L345.034 0.57693L344.01 0.362758L342.814 0.206788L341.762 0.131176L331.003 0L316.622 0.093196Z" fill="#FF6E00"/>
<path fill-rule="evenodd" clip-rule="evenodd" d="M316.213 1.78516H314.474L311.352 14.3039L347.743 14.3491L347.959 12.6575L313.604 12.6487L316.213 1.78516Z" fill="#0275AD"/>
<path fill-rule="evenodd" clip-rule="evenodd" d="M312.496 15.7734L349.027 15.868L345.712 28.4745L344.997 31.2444L344.635 32.4895L344.462 33.0293L344.14 33.9655L343.824 34.8111L343.413 35.8078L343.073 36.5366L342.788 37.0594L342.457 37.591L342.06 38.158L341.661 38.6697L341.141 39.2723L340.585 39.8545L340.076 40.3406L339.535 40.8159L337.839 42.1373L337.732 42.2212L337.681 42.2597L337.608 42.3112L337.494 42.3866L337.407 42.4457L337.259 42.5352L337.166 42.5878L337.067 42.6416L336.938 42.7082L336.723 42.8071L336.606 42.8581L336.467 42.9193L336.28 42.9977L335.907 43.1325L335.387 43.2913L335.259 43.3304L335.158 43.3578L334.462 43.5245L333.866 43.6434L333.689 43.6748L333.305 43.7367L333.094 43.7673L332.962 43.7861L332.671 43.8275L332.059 43.8994L331.496 43.95L330.713 44.0181L329.654 44.0791L327.473 44.1391L325.899 44.1318L321.132 44.1222L315.916 44.1616L315.392 44.1633L305.281 44.1653L312.496 15.7734Z" fill="#FF0000"/>
<path fill-rule="evenodd" clip-rule="evenodd" d="M312.033 17.5703H310.315L303.094 45.8179L325.516 45.8137L326.9 45.797L328.11 45.759L328.978 45.7093L330.061 45.6094L330.892 45.4937L331.736 45.3316L332.042 45.2598L332.462 45.1487L332.921 45.0091L333.34 44.8638L333.756 44.7014L334.202 44.5078L334.357 44.435L334.502 44.3646L334.595 44.3182L334.755 44.2368L335.058 44.0734L335.336 43.9143L335.699 43.6943L336.591 43.0915L336.962 42.8158L337.282 42.5677L337.573 42.3328L337.599 42.3145L337.397 42.4488L337.229 42.5496L336.823 42.7594L336.797 42.7713L336.367 42.9619L335.9 43.1343L335.251 43.3323L334.488 43.5195L333.845 43.6477L333.363 43.7293L332.706 43.8237L332.013 43.9057L330.748 44.0168L329.736 44.0768L327.587 44.1394L321.795 44.1193L315.681 44.1647L309.807 44.1686L305.274 44.167L312.033 17.5703Z" fill="#0275AD"/>
<path fill-rule="evenodd" clip-rule="evenodd" d="M204.858 28.3397L204.045 31.551H202.329L202.684 30.1341H198.321L198.77 28.3397H199.034C199.779 28.3397 200.52 28.3426 201.264 28.3203L203.05 28.3397H204.858Z" fill="#0275AD"/>
<path fill-rule="evenodd" clip-rule="evenodd" d="M10.4309 15.7832L46.7752 15.7656L46.4681 17.1233L46.075 18.2852L45.6259 19.3897L45.1236 20.472L44.4993 21.6367L43.939 22.4734L42.9293 23.7291L42.0825 24.5993L40.9593 25.5302L39.9068 26.2481L37.4428 27.4966L37.5331 28.2816H7.15625L10.4309 15.7832Z" fill="#FF3B00"/>
<path fill-rule="evenodd" clip-rule="evenodd" d="M52.4111 15.7148H82.4185L79.2371 28.279L64.1795 28.3004L49.1328 28.2821L52.4111 15.7148Z" fill="#FF3B00"/>
<path fill-rule="evenodd" clip-rule="evenodd" d="M88.0619 15.7734L124.375 15.8686L121.222 28.2795L105.784 28.3852L101.543 22.1972L99.9743 28.2795H84.7891L88.0619 15.7734Z" fill="#FF3B00"/>
<path fill-rule="evenodd" clip-rule="evenodd" d="M139.437 15.7891H154.441L151.182 28.2814H136.273L139.437 15.7891Z" fill="#FF3B00"/>
<path fill-rule="evenodd" clip-rule="evenodd" d="M187.021 15.7734L223.334 15.8679L223.153 16.4179L222.97 16.8533L222.621 17.5535L222.151 18.3534L221.768 18.9345L221.207 19.7035L220.326 20.7421L219.245 21.7123L219.132 21.8171L219.056 21.9175L218.986 22.0191L218.991 22.1195L219.012 22.279L219.079 22.5468L219.25 22.9883L219.7 23.9459L219.883 24.3813L220.018 24.7954L220.174 25.5547L220.257 26.212L220.29 26.9083L220.274 27.3481L220.225 27.7576L220.107 28.3224L183.68 28.3281L183.764 28.0427L183.852 27.8259L183.97 27.5496L184.088 27.2881L184.308 26.8354L184.448 26.5674L184.564 26.3572L184.717 26.093L184.894 25.8053L185.068 25.5396L185.242 25.2873L185.45 25.0045L185.677 24.7137L185.895 24.4515L186.186 24.122L186.391 23.9044L186.682 23.611L186.951 23.3544L187.214 23.1149L187.404 22.9475L187.53 22.8396L187.751 22.6555L188.034 22.426L188.326 22.1972L188.278 22.0279L188.187 21.7742L188.047 21.4752L187.896 21.2111L187.726 20.9407L187.46 20.5164L187.309 20.2535L187.248 20.1371L187.221 20.0762L187.15 19.9013L187.11 19.7972L187.072 19.6929L187.012 19.5218L186.967 19.3811L186.915 19.1763L186.893 19.0754L186.868 18.9468L186.834 18.6776L186.813 18.3833L186.809 18.2213L186.804 17.8927L186.804 17.5684L187.021 15.7734Z" fill="#FF3B00"/>
<path fill-rule="evenodd" clip-rule="evenodd" d="M249.705 15.7872L285.964 15.7734L285.743 17.1272L285.35 18.2894L284.9 19.3942L284.398 20.477L283.774 21.641L283.213 22.478L282.204 23.7332L281.357 24.6039L280.234 25.5348L279.181 26.2521L276.717 27.5007L276.807 28.2795H246.429L249.705 15.7872Z" fill="#FF3B00"/>
<path fill-rule="evenodd" clip-rule="evenodd" d="M292.18 15.8711H307.184L303.948 28.2796H289.039L292.18 15.8711Z" fill="#FF3B00"/>
<path fill-rule="evenodd" clip-rule="evenodd" d="M312.491 15.7734L349.021 15.8679L345.757 28.2795H309.312L312.491 15.7734Z" fill="#FF3B00"/>
<path fill-rule="evenodd" clip-rule="evenodd" d="M354.631 15.7969H384.638L381.48 28.2731L351.375 28.2787L354.631 15.7969Z" fill="#FF3B00"/>
</svg>
